<svg width="466" height="893" viewBox="0 0 466 893" fill="none" xmlns="http://www.w3.org/2000/svg">
<path fill-rule="evenodd" clip-rule="evenodd" d="M662.833 390.913C681.274 531.161 622.867 636.247 567.201 725.686C518.967 803.185 456.685 852.996 381.912 842.274C303.864 831.082 227.914 769.179 169.586 668.67C101.573 551.473 22.6975 398.895 47.5712 266.152C71.6843 137.468 190.205 178.744 269.093 137.632C340.988 100.163 398.447 -8.55506 477.326 42.1856C567.026 99.8871 643.292 242.309 662.833 390.913Z" fill="#E0C9B0"/>
<path fill-rule="evenodd" clip-rule="evenodd" d="M443.161 667.542C366.464 677.439 294.189 623.785 231.454 573.084C177.094 529.152 135.742 474.467 126.565 411.677C116.986 346.138 136.936 284.433 182.652 239.195C235.959 186.446 307.341 125.95 388.612 152.373C467.398 177.988 468.011 276.527 507.776 344.901C544.016 407.214 618.182 460.214 605.237 524.849C590.517 598.352 524.427 657.055 443.161 667.542Z" fill="#95481B"/>
<path fill-rule="evenodd" clip-rule="evenodd" d="M377.155 574.292C317.81 582.288 263.22 544.714 215.923 509.144C174.94 478.321 144.214 439.643 138.467 394.781C132.469 347.953 149.158 303.522 185.364 270.581C227.581 232.17 283.9 187.996 346.002 205.96C406.206 223.374 404.593 293.943 433.805 342.443C460.428 386.645 516.49 423.727 505.141 470.174C492.235 522.993 440.036 565.819 377.155 574.292Z" fill="#E0C9B0"/>
<path fill-rule="evenodd" clip-rule="evenodd" d="M351.048 531.237C306.463 537.245 265.45 509.016 229.917 482.292C199.127 459.136 176.043 430.077 171.725 396.373C167.219 361.192 179.757 327.811 206.958 303.063C238.675 274.205 280.987 241.018 327.644 254.514C372.874 267.597 371.662 320.614 393.609 357.052C413.61 390.26 455.729 418.12 447.203 453.015C437.507 492.697 398.29 524.872 351.048 531.237Z" fill="#E0C9B0"/>
<path fill-rule="evenodd" clip-rule="evenodd" d="M340.801 492.938C308.641 497.272 279.057 476.91 253.426 457.633C231.216 440.93 214.566 419.97 211.451 395.658C208.201 370.281 217.245 346.202 236.865 328.351C259.744 307.535 290.264 283.597 323.919 293.331C356.544 302.769 355.67 341.011 371.501 367.295C385.929 391.249 416.31 411.344 410.16 436.515C403.166 465.139 374.878 488.347 340.801 492.938Z" fill="#95481B"/>
</svg>
