<svg width="502" height="1117" viewBox="0 0 502 1117" fill="none" xmlns="http://www.w3.org/2000/svg">
<g opacity="0.2">
<path d="M270.463 965.35C270.867 966.279 273.358 974.567 272.988 974.865C272.752 975.051 264.975 973.415 264.739 973.155C264.638 973.081 268.88 967.208 270.463 965.35ZM440.727 1011.36C440.761 1011.36 443.892 1009.54 445.508 1008.76C445.609 1008.72 445.879 1008.65 446.047 1008.61C446.182 1008.57 446.283 1008.5 446.35 1008.39C446.417 1008.28 446.384 1008.17 446.316 1008.09L442.175 1003.22C442.108 1003.15 442.007 1003.11 441.906 1003.07C441.805 1003.07 441.67 1003.07 441.569 1003.15C441.535 1003.19 440.727 1003.67 440.357 1003.93C439.111 1004.82 436.283 1006.34 436.249 1006.34C436.148 1006.42 436.081 1006.49 436.047 1006.6C436.047 1006.72 436.081 1006.79 436.148 1006.87C436.148 1006.87 436.99 1007.53 437.36 1007.87C437.899 1008.43 438.438 1008.98 438.943 1009.58C439.347 1010.02 439.414 1010.17 439.481 1010.36C439.583 1010.54 439.65 1010.77 440.121 1011.29C440.29 1011.44 440.559 1011.47 440.727 1011.36ZM258.51 567.854C258.746 567.854 258.914 567.669 258.914 567.408C258.914 567.371 258.914 567.297 258.88 567.26C258.813 566.665 258.847 561.945 258.88 559.009C258.88 558.897 258.847 558.786 258.746 558.674C258.678 558.6 258.577 558.526 258.443 558.526C258.375 558.526 256.793 558.526 256.456 558.563L251.877 558.711C251.776 558.711 251.675 558.786 251.574 558.86C251.507 558.934 251.473 559.046 251.473 559.157L251.473 559.195C251.709 561.908 251.776 564.658 251.675 567.371C251.675 567.483 251.709 567.631 251.776 567.706C251.844 567.78 251.978 567.854 252.079 567.854C254.133 567.817 256.524 567.817 258.51 567.854Z" fill="#FDB9A0"/>
<path d="M270.463 406.824C270.867 407.754 273.358 416.042 272.988 416.339C272.752 416.525 264.975 414.89 264.739 414.629C264.638 414.555 268.88 408.683 270.463 406.824ZM440.727 452.837C440.761 452.837 443.892 451.015 445.508 450.235C445.609 450.198 445.879 450.123 446.047 450.086C446.182 450.049 446.283 449.975 446.35 449.863C446.417 449.752 446.384 449.64 446.316 449.566L442.175 444.697C442.108 444.623 442.007 444.586 441.906 444.548C441.805 444.548 441.67 444.548 441.569 444.623C441.535 444.66 440.727 445.143 440.357 445.403C439.111 446.295 436.283 447.819 436.249 447.819C436.148 447.894 436.081 447.968 436.047 448.079C436.047 448.191 436.081 448.265 436.148 448.339C436.148 448.339 436.99 449.008 437.36 449.343C437.899 449.9 438.438 450.458 438.943 451.053C439.347 451.499 439.414 451.647 439.481 451.833C439.583 452.019 439.65 452.242 440.121 452.762C440.29 452.911 440.559 452.948 440.727 452.837ZM258.51 9.32878C258.746 9.32878 258.914 9.14295 258.914 8.88279C258.914 8.84562 258.914 8.77129 258.88 8.73412C258.813 8.13946 258.847 3.41931 258.88 0.483156C258.88 0.371657 258.847 0.260157 258.746 0.148658C258.678 0.0743248 258.577 -8.2094e-06 258.443 -8.21529e-06C258.375 -8.21823e-06 256.793 -8.3234e-06 256.456 0.0371582L251.877 0.185824C251.776 0.185824 251.675 0.260157 251.574 0.33449C251.507 0.408823 251.473 0.520323 251.473 0.631822L251.473 0.668988C251.709 3.38214 251.776 6.13246 251.675 8.84562C251.675 8.95712 251.709 9.10578 251.776 9.18012C251.844 9.25445 251.978 9.32878 252.079 9.32878C254.133 9.29162 256.524 9.29162 258.51 9.32878Z" fill="#FDB9A0"/>
<path d="M19.74 965.35C20.144 966.279 22.6355 974.567 22.2652 974.865C22.0295 975.051 14.2519 973.415 14.0162 973.155C13.9152 973.081 18.1575 967.208 19.74 965.35ZM190.005 1011.36C190.038 1011.36 193.169 1009.54 194.786 1008.76C194.887 1008.72 195.156 1008.65 195.324 1008.61C195.459 1008.57 195.56 1008.5 195.627 1008.39C195.695 1008.28 195.661 1008.17 195.594 1008.09L191.452 1003.22C191.385 1003.15 191.284 1003.11 191.183 1003.07C191.082 1003.07 190.947 1003.07 190.846 1003.15C190.813 1003.19 190.005 1003.67 189.634 1003.93C188.388 1004.82 185.56 1006.34 185.527 1006.34C185.426 1006.42 185.358 1006.49 185.325 1006.6C185.325 1006.72 185.358 1006.79 185.426 1006.87C185.426 1006.87 186.267 1007.53 186.638 1007.87C187.176 1008.43 187.715 1008.98 188.22 1009.58C188.624 1010.02 188.692 1010.17 188.759 1010.36C188.86 1010.54 188.927 1010.77 189.399 1011.29C189.567 1011.44 189.836 1011.47 190.005 1011.36ZM7.78748 567.854C8.02316 567.854 8.19151 567.669 8.19151 567.408C8.19151 567.371 8.1915 567.297 8.15783 567.26C8.09049 566.665 8.12416 561.945 8.15783 559.009C8.15783 558.897 8.12418 558.786 8.02317 558.674C7.95583 558.6 7.85481 558.526 7.72014 558.526C7.6528 558.526 6.07034 558.526 5.73365 558.563L1.15467 558.711C1.05366 558.711 0.952642 558.786 0.851635 558.86C0.784297 558.934 0.750632 559.046 0.750632 559.157L0.750632 559.195C0.986316 561.908 1.05367 564.658 0.952659 567.371C0.952659 567.483 0.986324 567.631 1.05366 567.706C1.121 567.78 1.25566 567.854 1.35667 567.854C3.41049 567.817 5.801 567.817 7.78748 567.854Z" fill="#FDB9A0"/>
<path d="M19.74 406.824C20.144 407.754 22.6355 416.042 22.2652 416.339C22.0295 416.525 14.2519 414.89 14.0162 414.629C13.9152 414.555 18.1575 408.683 19.74 406.824ZM190.005 452.837C190.038 452.837 193.169 451.015 194.786 450.235C194.887 450.198 195.156 450.123 195.324 450.086C195.459 450.049 195.56 449.975 195.627 449.863C195.695 449.752 195.661 449.64 195.594 449.566L191.452 444.697C191.385 444.623 191.284 444.586 191.183 444.548C191.082 444.548 190.947 444.548 190.846 444.623C190.813 444.66 190.005 445.143 189.634 445.403C188.388 446.295 185.56 447.819 185.527 447.819C185.426 447.894 185.358 447.968 185.325 448.079C185.325 448.191 185.358 448.265 185.426 448.339C185.426 448.339 186.267 449.008 186.638 449.343C187.176 449.9 187.715 450.458 188.22 451.053C188.624 451.499 188.692 451.647 188.759 451.833C188.86 452.019 188.927 452.242 189.399 452.762C189.567 452.911 189.836 452.948 190.005 452.837ZM7.78748 9.32878C8.02316 9.32878 8.19151 9.14295 8.19151 8.88279C8.19151 8.84562 8.1915 8.77129 8.15783 8.73412C8.09049 8.13946 8.12416 3.41931 8.15783 0.483156C8.15783 0.371657 8.12418 0.260157 8.02317 0.148658C7.95583 0.0743248 7.85481 -8.2094e-06 7.72014 -8.21529e-06C7.6528 -8.21823e-06 6.07034 -8.3234e-06 5.73365 0.0371582L1.15467 0.185824C1.05366 0.185824 0.952642 0.260157 0.851635 0.33449C0.784297 0.408823 0.750632 0.520323 0.750632 0.631822L0.750632 0.668988C0.986316 3.38214 1.05367 6.13246 0.952659 8.84562C0.952659 8.95712 0.986324 9.10578 1.05366 9.18012C1.121 9.25445 1.25566 9.32878 1.35667 9.32878C3.41049 9.29162 5.801 9.29162 7.78748 9.32878Z" fill="#FDB9A0"/>
<path d="M388.775 619.181C389.617 619.665 396.182 624.496 396.047 624.979C395.946 625.277 388.909 629.254 388.606 629.254C388.505 629.216 388.573 621.709 388.775 619.181ZM278.206 777.251C278.239 777.213 280.966 774.76 282.414 773.645C282.515 773.571 282.751 773.46 282.919 773.385C283.054 773.311 283.155 773.237 283.189 773.125C283.222 773.014 283.189 772.902 283.088 772.828L278.138 768.925C278.071 768.851 277.97 768.851 277.835 768.851C277.734 768.851 277.599 768.925 277.532 769C277.498 769.037 276.791 769.669 276.488 770.04C275.445 771.192 272.953 773.311 272.919 773.348C272.818 773.422 272.785 773.534 272.785 773.645C272.785 773.757 272.852 773.831 272.953 773.868C272.953 773.868 273.896 774.314 274.334 774.612C274.973 775.021 275.579 775.467 276.185 775.913C276.657 776.247 276.758 776.396 276.859 776.544C276.993 776.73 277.094 776.916 277.667 777.325C277.768 777.436 278.037 777.399 278.206 777.251ZM457.291 825.976C457.224 826.199 457.359 826.459 457.561 826.496L457.695 826.496C458.167 826.571 461.938 827.537 464.261 828.169C464.362 828.206 464.463 828.169 464.53 828.094C464.631 828.02 464.665 827.908 464.699 827.797C464.699 827.723 465.069 826.05 465.136 825.678L466.045 820.698C466.079 820.587 466.045 820.438 465.978 820.364C465.911 820.289 465.843 820.215 465.776 820.178L465.742 820.178C463.554 819.881 461.332 819.36 459.211 818.728C459.11 818.691 459.009 818.728 458.908 818.803C458.807 818.877 458.773 818.989 458.739 819.1C458.301 821.256 457.763 823.82 457.291 825.976Z" fill="#FEE272"/>
<path d="M388.775 60.6558C389.617 61.1389 396.182 65.9706 396.047 66.4537C395.946 66.7511 388.909 70.7279 388.606 70.7279C388.505 70.6907 388.573 63.1831 388.775 60.6558ZM278.206 218.725C278.239 218.688 280.966 216.235 282.414 215.12C282.515 215.045 282.751 214.934 282.919 214.86C283.054 214.785 283.155 214.711 283.189 214.599C283.222 214.488 283.189 214.376 283.088 214.302L278.138 210.4C278.071 210.325 277.97 210.325 277.835 210.325C277.734 210.325 277.599 210.4 277.532 210.474C277.498 210.511 276.791 211.143 276.488 211.515C275.445 212.667 272.953 214.785 272.919 214.822C272.818 214.897 272.785 215.008 272.785 215.12C272.785 215.231 272.852 215.306 272.953 215.343C272.953 215.343 273.896 215.789 274.334 216.086C274.973 216.495 275.579 216.941 276.185 217.387C276.657 217.721 276.758 217.87 276.859 218.019C276.993 218.205 277.094 218.39 277.667 218.799C277.768 218.911 278.037 218.874 278.206 218.725ZM457.291 267.45C457.224 267.673 457.359 267.933 457.561 267.971L457.695 267.971C458.167 268.045 461.938 269.011 464.261 269.643C464.362 269.68 464.463 269.643 464.53 269.569C464.631 269.494 464.665 269.383 464.699 269.271C464.699 269.197 465.069 267.525 465.136 267.153L466.045 262.173C466.079 262.061 466.045 261.912 465.978 261.838C465.911 261.764 465.843 261.689 465.776 261.652L465.742 261.652C463.554 261.355 461.332 260.835 459.211 260.203C459.11 260.166 459.009 260.203 458.908 260.277C458.807 260.351 458.773 260.463 458.739 260.574C458.301 262.73 457.763 265.295 457.291 267.45Z" fill="#FEE272"/>
<path d="M138.052 619.181C138.894 619.665 145.459 624.496 145.325 624.979C145.224 625.277 138.187 629.254 137.884 629.254C137.783 629.216 137.85 621.709 138.052 619.181ZM27.4829 777.251C27.5165 777.213 30.2437 774.76 31.6915 773.645C31.7925 773.571 32.0282 773.46 32.1965 773.385C32.3312 773.311 32.4322 773.237 32.4659 773.125C32.4995 773.014 32.4659 772.902 32.3649 772.828L27.4155 768.925C27.3482 768.851 27.2472 768.851 27.1125 768.851C27.0115 768.851 26.8768 768.925 26.8095 769C26.7758 769.037 26.0687 769.669 25.7657 770.04C24.722 771.192 22.2305 773.311 22.1968 773.348C22.0958 773.422 22.0621 773.534 22.0621 773.645C22.0621 773.757 22.1295 773.831 22.2305 773.868C22.2305 773.868 23.1732 774.314 23.6109 774.612C24.2506 775.021 24.8567 775.467 25.4627 775.913C25.9341 776.247 26.0351 776.396 26.1361 776.544C26.2708 776.73 26.3718 776.916 26.9441 777.325C27.0451 777.436 27.3145 777.399 27.4829 777.251ZM206.569 825.976C206.501 826.199 206.636 826.459 206.838 826.496L206.973 826.496C207.444 826.571 211.215 827.537 213.538 828.169C213.639 828.206 213.74 828.169 213.808 828.094C213.909 828.02 213.942 827.908 213.976 827.797C213.976 827.723 214.346 826.05 214.414 825.678L215.323 820.698C215.356 820.587 215.323 820.438 215.255 820.364C215.188 820.289 215.121 820.215 215.053 820.178L215.02 820.178C212.831 819.881 210.609 819.36 208.488 818.728C208.387 818.691 208.286 818.728 208.185 818.803C208.084 818.877 208.05 818.989 208.017 819.1C207.579 821.256 207.04 823.82 206.569 825.976Z" fill="#FEE272"/>
<path d="M138.052 60.6558C138.894 61.1389 145.459 65.9706 145.325 66.4537C145.224 66.7511 138.187 70.7279 137.884 70.7279C137.783 70.6907 137.85 63.1831 138.052 60.6558ZM27.4829 218.725C27.5165 218.688 30.2437 216.235 31.6915 215.12C31.7925 215.045 32.0282 214.934 32.1965 214.86C32.3312 214.785 32.4322 214.711 32.4659 214.599C32.4995 214.488 32.4659 214.376 32.3649 214.302L27.4155 210.4C27.3482 210.325 27.2472 210.325 27.1125 210.325C27.0115 210.325 26.8768 210.4 26.8095 210.474C26.7758 210.511 26.0687 211.143 25.7657 211.515C24.722 212.667 22.2305 214.785 22.1968 214.822C22.0958 214.897 22.0621 215.008 22.0621 215.12C22.0621 215.231 22.1295 215.306 22.2305 215.343C22.2305 215.343 23.1732 215.789 23.6109 216.086C24.2506 216.495 24.8567 216.941 25.4627 217.387C25.9341 217.721 26.0351 217.87 26.1361 218.019C26.2708 218.205 26.3718 218.39 26.9441 218.799C27.0451 218.911 27.3145 218.874 27.4829 218.725ZM206.569 267.45C206.501 267.673 206.636 267.933 206.838 267.971L206.973 267.971C207.444 268.045 211.215 269.011 213.538 269.643C213.639 269.68 213.74 269.643 213.808 269.569C213.909 269.494 213.942 269.383 213.976 269.271C213.976 269.197 214.346 267.525 214.414 267.153L215.323 262.173C215.356 262.061 215.323 261.912 215.255 261.838C215.188 261.764 215.121 261.689 215.053 261.652L215.02 261.652C212.831 261.355 210.609 260.835 208.488 260.203C208.387 260.166 208.286 260.203 208.185 260.277C208.084 260.351 208.05 260.463 208.017 260.574C207.579 262.73 207.04 265.295 206.569 267.45Z" fill="#FEE272"/>
<path d="M358.712 815.606C358.712 815.048 358.981 814.565 359.486 814.305C360.126 814.008 360.9 814.305 361.17 815.011C361.708 816.386 362.752 817.539 364.032 818.133C365.311 818.728 366.759 818.765 368.038 818.208C368.341 818.096 368.644 817.91 368.981 817.762C369.553 817.464 370.227 817.093 370.967 816.907C372.348 816.572 373.863 816.832 375.277 817.65C376.321 818.282 377.331 819.174 378.341 820.475C378.812 821.069 378.745 821.961 378.206 822.445C377.668 822.965 376.86 822.891 376.422 822.296C375.58 821.255 374.839 820.549 374.065 820.103C373.19 819.583 372.281 819.397 371.506 819.62C371.035 819.731 370.563 819.992 370.058 820.252L368.947 820.809C367.062 821.59 364.907 821.553 363.022 820.698C361.17 819.843 359.621 818.17 358.813 816.126C358.746 815.978 358.712 815.792 358.712 815.606ZM375.984 830.77C376.052 831.327 375.816 831.885 375.344 832.182C374.738 832.591 373.93 832.331 373.56 831.662C372.853 830.287 371.675 829.283 370.361 828.837C369.015 828.391 367.533 828.54 366.287 829.246C365.984 829.395 365.715 829.618 365.378 829.841C364.806 830.212 364.2 830.658 363.459 830.956C362.113 831.476 360.53 831.402 359.015 830.733C357.87 830.212 356.793 829.432 355.614 828.205C355.076 827.648 355.042 826.756 355.547 826.161C356.018 825.567 356.86 825.529 357.365 826.087C358.308 827.053 359.15 827.685 359.958 828.057C360.9 828.466 361.843 828.54 362.618 828.243C363.055 828.057 363.527 827.759 363.998 827.425C364.335 827.202 364.705 826.942 365.075 826.719C366.894 825.678 369.082 825.455 371.068 826.087C373.055 826.756 374.772 828.243 375.782 830.25C375.917 830.398 375.984 830.584 375.984 830.77ZM318.915 652.705C316.626 654.824 313.629 656.05 311.373 656.199C308.915 656.385 305.851 655.307 304.505 652.408C304 651.293 303.764 649.918 303.764 648.245C303.798 645.309 304.74 643.451 306.592 642.522C308.175 641.741 310.43 641.667 311.946 643.191C313.124 644.38 313.326 646.09 312.484 647.353C312.181 647.799 311.575 647.911 311.171 647.576C310.767 647.242 310.666 646.573 310.969 646.127C311.407 645.458 310.767 644.789 310.7 644.714C309.824 643.822 308.343 643.934 307.367 644.417C306.222 644.975 305.683 646.164 305.649 648.282C305.649 649.62 305.818 650.661 306.188 651.479C306.996 653.226 309.084 654.341 311.239 654.155C313.696 653.969 317.366 652.185 319.285 649.323C320.329 647.762 320.666 646.164 320.329 644.529C320.093 643.376 319.521 642.224 318.646 640.923C316.929 638.47 314.673 636.575 312.249 635.646C309.656 634.642 306.929 634.865 304.202 636.352C303.73 636.612 303.158 636.389 302.956 635.869C302.72 635.348 302.922 634.717 303.394 634.494C306.559 632.784 309.858 632.487 312.888 633.676C315.649 634.754 318.242 636.872 320.161 639.66C321.205 641.184 321.878 642.633 322.181 644.045C322.652 646.275 322.181 648.505 320.834 650.55C320.262 651.33 319.622 652.073 318.915 652.705Z" fill="#EAC5E7"/>
<path d="M463.656 932.345C463.656 933.803 464.727 934.984 466.047 934.984C467.367 934.984 468.437 933.803 468.437 932.345C468.437 930.888 467.367 929.707 466.047 929.707C464.727 929.707 463.656 930.888 463.656 932.345Z" fill="#EAC5E7"/>
<path d="M470.996 936.286C470.996 937.743 472.067 938.924 473.387 938.924C474.707 938.924 475.777 937.743 475.777 936.286C475.777 934.828 474.707 933.647 473.387 933.647C472.067 933.647 470.996 934.828 470.996 936.286Z" fill="#EAC5E7"/>
<path d="M465.34 941.117C465.34 942.574 466.41 943.756 467.731 943.756C469.051 943.756 470.121 942.574 470.121 941.117C470.121 939.66 469.051 938.478 467.731 938.478C466.41 938.478 465.34 939.66 465.34 941.117Z" fill="#EAC5E7"/>
<path d="M417.8 1116.32C419.618 1114.54 421.436 1112.72 423.254 1110.82C425.139 1112.9 427.126 1114.95 429.382 1116.62C429.954 1117.06 430.762 1116.88 431.133 1116.25C431.537 1115.61 431.368 1114.72 430.796 1114.31C428.708 1112.75 426.89 1110.93 425.106 1108.92C426.789 1107.14 428.473 1105.32 430.122 1103.46C430.628 1102.9 430.628 1102.01 430.122 1101.49C429.617 1100.93 428.809 1100.93 428.338 1101.49C426.722 1103.31 425.038 1105.1 423.355 1106.88C422.985 1106.47 422.614 1106.03 422.278 1105.58C420.998 1104.06 419.651 1102.46 418.237 1100.97C417.732 1100.45 416.958 1100.45 416.453 1100.97C415.981 1101.53 415.981 1102.42 416.487 1102.94C417.833 1104.39 419.146 1105.95 420.426 1107.44C420.796 1107.88 421.167 1108.29 421.537 1108.74C419.752 1110.56 417.968 1112.38 416.183 1114.16L416.116 1114.24C415.645 1114.76 415.611 1115.61 416.049 1116.17C416.453 1116.8 417.261 1116.84 417.8 1116.32ZM434.163 677.347L435.038 677.198C438.775 676.641 442.849 676.381 447.496 676.344C449.348 676.344 451.368 676.344 453.725 676.418L454.499 676.418C456.182 676.418 458.27 676.418 459.044 677.867C459.482 678.685 459.381 679.763 458.741 681.026C457.697 683.145 455.812 685.932 453.725 687.531C451.098 689.575 448.034 690.244 445.072 689.389C440.93 688.2 434.634 683.814 434.264 678.239L434.163 677.347ZM457.529 679.019C457.529 678.945 457.529 678.908 457.495 678.871C457.462 678.834 457.327 678.611 456.586 678.462C455.947 678.35 455.172 678.35 454.465 678.35L453.657 678.35C451.334 678.276 449.348 678.276 447.496 678.276C443.287 678.313 439.584 678.536 436.149 679.019C437.058 683.108 442.243 686.601 445.509 687.568C447.933 688.274 450.492 687.716 452.681 686.007C454.533 684.557 456.25 681.956 457.159 680.097C457.428 679.577 457.529 679.205 457.529 679.019ZM497.393 747.48C497.393 747.443 497.393 747.406 497.427 747.332C497.663 746.44 497.73 745.845 497.663 744.841C497.663 744.581 497.831 744.358 498.067 744.321C498.302 744.321 498.504 744.507 498.538 744.767C498.605 745.919 498.538 746.588 498.269 747.592C498.201 747.852 497.966 748.001 497.73 747.926C497.528 747.852 497.393 747.666 497.393 747.48ZM494.127 743.689C494.127 743.503 494.228 743.318 494.397 743.243C495.104 742.946 495.845 742.797 496.619 742.76C496.855 742.76 497.057 742.946 497.057 743.206C497.057 743.466 496.888 743.689 496.653 743.689C495.979 743.726 495.34 743.875 494.7 744.098C494.464 744.172 494.228 744.061 494.161 743.801C494.127 743.801 494.127 743.726 494.127 743.689ZM496.181 739.229C496.181 739.081 496.249 738.932 496.35 738.858C496.552 738.709 496.821 738.746 496.956 738.932C497.427 739.601 497.831 740.307 498.168 741.088C498.269 741.311 498.168 741.608 497.966 741.719C497.764 741.831 497.494 741.719 497.393 741.496C497.09 740.79 496.72 740.121 496.282 739.527C496.215 739.452 496.181 739.341 496.181 739.229ZM499.245 741.608C499.245 741.422 499.346 741.273 499.481 741.162C499.818 740.976 500.121 740.716 500.626 740.27C500.76 740.158 500.929 740.01 501.097 739.861C501.299 739.712 501.568 739.75 501.703 739.935C501.838 740.158 501.804 740.456 501.636 740.604C501.467 740.753 501.299 740.902 501.164 741.013C500.626 741.496 500.289 741.794 499.851 742.017C499.649 742.128 499.38 742.017 499.279 741.794C499.245 741.757 499.245 741.682 499.245 741.608ZM499.346 743.912C499.346 743.801 499.38 743.726 499.413 743.615C499.548 743.392 499.818 743.355 500.02 743.503C500.592 743.949 501.164 744.358 501.77 744.73C501.972 744.841 502.073 745.139 501.939 745.362C501.838 745.585 501.568 745.696 501.366 745.548C500.727 745.176 500.087 744.73 499.481 744.247C499.413 744.172 499.346 744.061 499.346 743.912ZM388.979 938.144C388.979 938.107 388.979 938.07 389.013 937.996C389.248 937.104 389.316 936.509 389.248 935.506C389.248 935.245 389.417 935.022 389.652 934.985C389.888 934.985 390.09 935.171 390.124 935.431C390.191 936.583 390.124 937.252 389.854 938.256C389.787 938.516 389.551 938.665 389.316 938.59C389.114 938.516 388.979 938.33 388.979 938.144ZM385.713 934.353C385.713 934.167 385.814 933.982 385.982 933.907C386.689 933.61 387.43 933.461 388.204 933.424C388.44 933.424 388.642 933.61 388.642 933.87C388.642 934.13 388.474 934.353 388.238 934.353C387.565 934.39 386.925 934.539 386.285 934.762C386.05 934.837 385.814 934.725 385.747 934.465C385.713 934.465 385.713 934.39 385.713 934.353ZM387.767 929.893C387.767 929.745 387.834 929.596 387.935 929.522C388.137 929.373 388.406 929.41 388.541 929.596C389.013 930.265 389.417 930.971 389.753 931.752C389.854 931.975 389.753 932.272 389.551 932.384C389.349 932.495 389.08 932.384 388.979 932.161C388.676 931.454 388.305 930.785 387.868 930.191C387.8 930.116 387.767 930.005 387.767 929.893ZM390.831 932.272C390.831 932.086 390.932 931.938 391.066 931.826C391.403 931.64 391.706 931.38 392.211 930.934C392.346 930.823 392.514 930.674 392.682 930.525C392.884 930.377 393.154 930.414 393.288 930.6C393.423 930.823 393.39 931.12 393.221 931.269C393.053 931.417 392.884 931.566 392.75 931.677C392.211 932.161 391.874 932.458 391.437 932.681C391.235 932.792 390.965 932.681 390.864 932.458C390.831 932.421 390.831 932.346 390.831 932.272ZM390.932 934.576C390.932 934.465 390.965 934.391 390.999 934.279C391.134 934.056 391.403 934.019 391.605 934.167C392.177 934.613 392.75 935.022 393.356 935.394C393.558 935.506 393.659 935.803 393.524 936.026C393.423 936.249 393.154 936.36 392.952 936.212C392.312 935.84 391.672 935.394 391.066 934.911C390.999 934.836 390.932 934.725 390.932 934.576ZM324.806 1049.79C324.806 1049.27 324.873 1048.71 325.041 1048.12C325.95 1045 329.317 1041.95 331.775 1041.17C332.246 1041.02 332.751 1040.91 333.257 1040.84C332.145 1037.82 329.688 1035.07 326.186 1035.11C325.681 1035.11 325.277 1034.67 325.243 1034.11C325.243 1033.55 325.647 1033.1 326.152 1033.1C328.408 1033.07 330.496 1034 332.213 1035.71C333.56 1037.04 334.603 1038.83 335.176 1040.8C337.364 1040.98 339.519 1041.95 341.034 1043.55C343.526 1046.15 344.031 1050.31 344.435 1053.69L344.468 1053.96C344.536 1054.51 344.165 1055.03 343.694 1055.11C343.189 1055.18 342.718 1054.77 342.65 1054.25L342.617 1053.99C342.212 1050.8 341.775 1047.15 339.788 1045.07C338.711 1043.96 337.196 1043.21 335.613 1042.95C335.95 1045.89 335.176 1049.53 333.694 1051.99C332.718 1053.58 331.068 1054.62 329.418 1054.66C327.97 1054.74 326.624 1054.03 325.681 1052.73C325.142 1051.84 324.806 1050.87 324.806 1049.79ZM333.795 1042.84C333.29 1042.88 332.785 1042.99 332.314 1043.14C330.361 1043.77 327.533 1046.37 326.826 1048.75C326.523 1049.79 326.657 1050.65 327.196 1051.43C327.903 1052.43 328.812 1052.62 329.418 1052.58C330.496 1052.54 331.573 1051.84 332.213 1050.8C333.526 1048.68 334.166 1045.33 333.795 1042.84Z" fill="#EAC5E7"/>
<path d="M358.712 257.081C358.712 256.523 358.981 256.04 359.486 255.78C360.126 255.483 360.9 255.78 361.17 256.486C361.708 257.861 362.752 259.013 364.032 259.608C365.311 260.203 366.759 260.24 368.038 259.682C368.341 259.571 368.644 259.385 368.981 259.236C369.553 258.939 370.227 258.567 370.967 258.382C372.348 258.047 373.863 258.307 375.277 259.125C376.321 259.757 377.331 260.649 378.341 261.95C378.812 262.544 378.745 263.436 378.206 263.919C377.668 264.44 376.86 264.365 376.422 263.771C375.58 262.73 374.839 262.024 374.065 261.578C373.19 261.058 372.281 260.872 371.506 261.095C371.035 261.206 370.563 261.466 370.058 261.727L368.947 262.284C367.062 263.065 364.907 263.027 363.022 262.173C361.17 261.318 359.621 259.645 358.813 257.601C358.746 257.452 358.712 257.267 358.712 257.081ZM375.984 272.245C376.052 272.802 375.816 273.36 375.344 273.657C374.738 274.066 373.93 273.806 373.56 273.137C372.853 271.762 371.675 270.758 370.361 270.312C369.015 269.866 367.533 270.015 366.287 270.721C365.984 270.87 365.715 271.093 365.378 271.316C364.806 271.687 364.2 272.133 363.459 272.431C362.113 272.951 360.53 272.877 359.015 272.208C357.87 271.687 356.793 270.907 355.614 269.68C355.076 269.123 355.042 268.231 355.547 267.636C356.018 267.041 356.86 267.004 357.365 267.562C358.308 268.528 359.15 269.16 359.958 269.532C360.9 269.94 361.843 270.015 362.618 269.717C363.055 269.532 363.527 269.234 363.998 268.9C364.335 268.677 364.705 268.417 365.075 268.194C366.894 267.153 369.082 266.93 371.068 267.562C373.055 268.231 374.772 269.717 375.782 271.724C375.917 271.873 375.984 272.059 375.984 272.245ZM318.915 94.18C316.626 96.2985 313.629 97.525 311.373 97.6737C308.915 97.8595 305.851 96.7817 304.505 93.8827C304 92.7677 303.764 91.3926 303.764 89.7201C303.798 86.7839 304.74 84.9256 306.592 83.9964C308.175 83.2159 310.43 83.1416 311.946 84.6654C313.124 85.8547 313.326 87.5644 312.484 88.8281C312.181 89.2741 311.575 89.3856 311.171 89.0511C310.767 88.7166 310.666 88.0476 310.969 87.6016C311.407 86.9326 310.767 86.2636 310.7 86.1892C309.824 85.2973 308.343 85.4087 307.367 85.8919C306.222 86.4494 305.683 87.6387 305.649 89.7572C305.649 91.0952 305.818 92.1359 306.188 92.9535C306.996 94.7004 309.084 95.8154 311.239 95.6295C313.696 95.4437 317.366 93.6597 319.285 90.7979C320.329 89.2369 320.666 87.6387 320.329 86.0034C320.093 84.8513 319.521 83.6991 318.646 82.3983C316.929 79.9453 314.673 78.0498 312.249 77.1206C309.656 76.1171 306.929 76.3401 304.202 77.8268C303.73 78.0869 303.158 77.8639 302.956 77.3436C302.72 76.8233 302.922 76.1915 303.394 75.9685C306.559 74.2588 309.858 73.9615 312.888 75.1508C315.649 76.2286 318.242 78.3471 320.161 81.1346C321.205 82.6584 321.878 84.1079 322.181 85.5202C322.652 87.7502 322.181 89.9802 320.834 92.0244C320.262 92.8049 319.622 93.5482 318.915 94.18Z" fill="#EAC5E7"/>
<path d="M463.656 373.821C463.656 375.279 464.727 376.46 466.047 376.46C467.367 376.46 468.437 375.279 468.437 373.821C468.437 372.364 467.367 371.182 466.047 371.182C464.727 371.182 463.656 372.364 463.656 373.821Z" fill="#EAC5E7"/>
<path d="M470.996 377.76C470.996 379.218 472.067 380.399 473.387 380.399C474.707 380.399 475.777 379.218 475.777 377.76C475.777 376.303 474.707 375.122 473.387 375.122C472.067 375.122 470.996 376.303 470.996 377.76Z" fill="#EAC5E7"/>
<path d="M465.34 382.592C465.34 384.049 466.41 385.231 467.731 385.231C469.051 385.231 470.121 384.049 470.121 382.592C470.121 381.134 469.051 379.953 467.731 379.953C466.41 379.953 465.34 381.134 465.34 382.592Z" fill="#EAC5E7"/>
<path d="M417.8 557.795C419.618 556.011 421.436 554.19 423.254 552.295C425.139 554.376 427.126 556.42 429.382 558.093C429.954 558.539 430.762 558.353 431.133 557.721C431.537 557.089 431.368 556.197 430.796 555.788C428.708 554.227 426.89 552.406 425.106 550.399C426.789 548.615 428.473 546.794 430.122 544.936C430.628 544.378 430.628 543.486 430.122 542.966C429.617 542.408 428.809 542.408 428.338 542.966C426.722 544.787 425.038 546.571 423.355 548.355C422.985 547.946 422.614 547.5 422.278 547.054C420.998 545.53 419.651 543.932 418.237 542.446C417.732 541.925 416.958 541.925 416.453 542.446C415.981 543.003 415.981 543.895 416.487 544.415C417.833 545.865 419.146 547.426 420.426 548.913C420.796 549.359 421.167 549.767 421.537 550.213C419.752 552.035 417.968 553.856 416.183 555.64L416.116 555.714C415.645 556.234 415.611 557.089 416.049 557.647C416.453 558.279 417.261 558.316 417.8 557.795ZM434.163 118.822L435.038 118.673C438.775 118.116 442.849 117.856 447.496 117.818C449.348 117.818 451.368 117.818 453.725 117.893L454.499 117.893C456.182 117.893 458.27 117.893 459.044 119.342C459.482 120.16 459.381 121.238 458.741 122.501C457.697 124.62 455.812 127.407 453.725 129.005C451.098 131.05 448.034 131.719 445.072 130.864C440.93 129.674 434.634 125.289 434.264 119.714L434.163 118.822ZM457.529 120.494C457.529 120.42 457.529 120.383 457.495 120.346C457.462 120.309 457.327 120.086 456.586 119.937C455.947 119.825 455.172 119.825 454.465 119.825L453.657 119.825C451.334 119.751 449.348 119.751 447.496 119.751C443.287 119.788 439.584 120.011 436.149 120.494C437.058 124.583 442.243 128.076 445.509 129.043C447.933 129.749 450.492 129.191 452.681 127.482C454.533 126.032 456.25 123.431 457.159 121.572C457.428 121.052 457.529 120.68 457.529 120.494ZM497.393 188.955C497.393 188.918 497.393 188.881 497.427 188.806C497.663 187.914 497.73 187.32 497.663 186.316C497.663 186.056 497.831 185.833 498.067 185.796C498.302 185.796 498.504 185.982 498.538 186.242C498.605 187.394 498.538 188.063 498.269 189.067C498.201 189.327 497.966 189.475 497.73 189.401C497.528 189.327 497.393 189.141 497.393 188.955ZM494.127 185.164C494.127 184.978 494.228 184.792 494.397 184.718C495.104 184.421 495.845 184.272 496.619 184.235C496.855 184.235 497.057 184.421 497.057 184.681C497.057 184.941 496.888 185.164 496.653 185.164C495.979 185.201 495.34 185.35 494.7 185.573C494.464 185.647 494.228 185.536 494.161 185.276C494.127 185.276 494.127 185.201 494.127 185.164ZM496.181 180.704C496.181 180.555 496.249 180.407 496.35 180.332C496.552 180.184 496.821 180.221 496.956 180.407C497.427 181.076 497.831 181.782 498.168 182.562C498.269 182.785 498.168 183.083 497.966 183.194C497.764 183.306 497.494 183.194 497.393 182.971C497.09 182.265 496.72 181.596 496.282 181.001C496.215 180.927 496.181 180.816 496.181 180.704ZM499.245 183.083C499.245 182.897 499.346 182.748 499.481 182.637C499.818 182.451 500.121 182.191 500.626 181.745C500.76 181.633 500.929 181.485 501.097 181.336C501.299 181.187 501.568 181.224 501.703 181.41C501.838 181.633 501.804 181.931 501.636 182.079C501.467 182.228 501.299 182.377 501.164 182.488C500.626 182.971 500.289 183.269 499.851 183.492C499.649 183.603 499.38 183.492 499.279 183.269C499.245 183.231 499.245 183.157 499.245 183.083ZM499.346 185.387C499.346 185.276 499.38 185.201 499.413 185.09C499.548 184.867 499.818 184.83 500.02 184.978C500.592 185.424 501.164 185.833 501.77 186.205C501.972 186.316 502.073 186.614 501.939 186.837C501.838 187.06 501.568 187.171 501.366 187.022C500.727 186.651 500.087 186.205 499.481 185.722C499.413 185.647 499.346 185.536 499.346 185.387ZM388.979 379.619C388.979 379.582 388.979 379.545 389.013 379.471C389.248 378.579 389.316 377.984 389.248 376.98C389.248 376.72 389.417 376.497 389.652 376.46C389.888 376.46 390.09 376.646 390.124 376.906C390.191 378.058 390.124 378.727 389.854 379.731C389.787 379.991 389.551 380.14 389.316 380.065C389.114 379.991 388.979 379.805 388.979 379.619ZM385.713 375.828C385.713 375.642 385.814 375.457 385.982 375.382C386.689 375.085 387.43 374.936 388.204 374.899C388.44 374.899 388.642 375.085 388.642 375.345C388.642 375.605 388.474 375.828 388.238 375.828C387.565 375.865 386.925 376.014 386.285 376.237C386.05 376.311 385.814 376.2 385.747 375.94C385.713 375.94 385.713 375.865 385.713 375.828ZM387.767 371.368C387.767 371.22 387.834 371.071 387.935 370.997C388.137 370.848 388.406 370.885 388.541 371.071C389.013 371.74 389.417 372.446 389.753 373.227C389.854 373.45 389.753 373.747 389.551 373.858C389.349 373.97 389.08 373.858 388.979 373.635C388.676 372.929 388.305 372.26 387.868 371.666C387.8 371.591 387.767 371.48 387.767 371.368ZM390.831 373.747C390.831 373.561 390.932 373.412 391.066 373.301C391.403 373.115 391.706 372.855 392.211 372.409C392.346 372.297 392.514 372.149 392.682 372C392.884 371.851 393.154 371.889 393.288 372.074C393.423 372.297 393.39 372.595 393.221 372.743C393.053 372.892 392.884 373.041 392.75 373.152C392.211 373.635 391.874 373.933 391.437 374.156C391.235 374.267 390.965 374.156 390.864 373.933C390.831 373.896 390.831 373.821 390.831 373.747ZM390.932 376.051C390.932 375.94 390.965 375.865 390.999 375.754C391.134 375.531 391.403 375.494 391.605 375.642C392.177 376.088 392.75 376.497 393.356 376.869C393.558 376.98 393.659 377.278 393.524 377.501C393.423 377.724 393.154 377.835 392.952 377.687C392.312 377.315 391.672 376.869 391.066 376.386C390.999 376.311 390.932 376.2 390.932 376.051ZM324.806 491.267C324.806 490.747 324.873 490.189 325.041 489.595C325.95 486.473 329.317 483.425 331.775 482.645C332.246 482.496 332.751 482.385 333.257 482.31C332.145 479.3 329.688 476.549 326.186 476.587C325.681 476.587 325.277 476.141 325.243 475.583C325.243 475.026 325.647 474.58 326.152 474.58C328.408 474.542 330.496 475.472 332.213 477.181C333.56 478.519 334.603 480.303 335.176 482.273C337.364 482.459 339.519 483.425 341.034 485.023C343.526 487.625 344.031 491.788 344.435 495.17L344.468 495.43C344.536 495.987 344.165 496.508 343.694 496.582C343.189 496.656 342.718 496.248 342.65 495.727L342.617 495.467C342.212 492.271 341.775 488.629 339.788 486.547C338.711 485.432 337.196 484.689 335.613 484.429C335.95 487.365 335.176 491.007 333.694 493.46C332.718 495.058 331.068 496.099 329.418 496.136C327.97 496.21 326.624 495.504 325.681 494.203C325.142 493.311 324.806 492.345 324.806 491.267ZM333.795 484.317C333.29 484.354 332.785 484.466 332.314 484.615C330.361 485.246 327.533 487.848 326.826 490.227C326.523 491.267 326.657 492.122 327.196 492.903C327.903 493.906 328.812 494.092 329.418 494.055C330.496 494.018 331.573 493.312 332.213 492.271C333.526 490.152 334.166 486.807 333.795 484.317Z" fill="#EAC5E7"/>
<path d="M107.989 815.606C107.989 815.048 108.259 814.565 108.764 814.305C109.403 814.008 110.178 814.305 110.447 815.011C110.986 816.386 112.03 817.539 113.309 818.133C114.588 818.728 116.036 818.765 117.316 818.208C117.619 818.096 117.922 817.91 118.258 817.762C118.831 817.464 119.504 817.093 120.245 816.907C121.625 816.572 123.14 816.832 124.554 817.65C125.598 818.282 126.608 819.174 127.618 820.475C128.09 821.069 128.022 821.961 127.484 822.445C126.945 822.965 126.137 822.891 125.699 822.296C124.857 821.255 124.117 820.549 123.342 820.103C122.467 819.583 121.558 819.397 120.784 819.62C120.312 819.731 119.841 819.992 119.336 820.252L118.225 820.809C116.339 821.59 114.184 821.553 112.299 820.698C110.447 819.843 108.898 818.17 108.09 816.126C108.023 815.978 107.989 815.792 107.989 815.606ZM125.262 830.77C125.329 831.327 125.093 831.885 124.622 832.182C124.016 832.591 123.208 832.331 122.837 831.662C122.13 830.287 120.952 829.283 119.639 828.837C118.292 828.391 116.811 828.54 115.565 829.246C115.262 829.395 114.992 829.618 114.656 829.841C114.083 830.212 113.477 830.658 112.737 830.956C111.39 831.476 109.807 831.402 108.292 830.733C107.148 830.212 106.07 829.432 104.892 828.205C104.353 827.648 104.319 826.756 104.824 826.161C105.296 825.567 106.137 825.529 106.643 826.087C107.585 827.053 108.427 827.685 109.235 828.057C110.178 828.466 111.121 828.54 111.895 828.243C112.333 828.057 112.804 827.759 113.275 827.425C113.612 827.202 113.982 826.942 114.353 826.719C116.171 825.678 118.359 825.455 120.346 826.087C122.332 826.756 124.049 828.243 125.06 830.25C125.194 830.398 125.262 830.584 125.262 830.77ZM68.1924 652.705C65.9029 654.824 62.9064 656.05 60.6505 656.199C58.1927 656.385 55.1288 655.307 53.782 652.408C53.277 651.293 53.0413 649.918 53.0413 648.245C53.075 645.309 54.0177 643.451 55.8695 642.522C57.452 641.741 59.7078 641.667 61.2229 643.191C62.4013 644.38 62.6034 646.09 61.7616 647.353C61.4586 647.799 60.8525 647.911 60.4485 647.576C60.0445 647.242 59.9435 646.573 60.2465 646.127C60.6842 645.458 60.0445 644.789 59.9772 644.714C59.1018 643.822 57.6203 643.934 56.6439 644.417C55.4992 644.975 54.9605 646.164 54.9268 648.282C54.9268 649.62 55.0951 650.661 55.4655 651.479C56.2736 653.226 58.361 654.341 60.5159 654.155C62.9737 653.969 66.6436 652.185 68.5628 649.323C69.6065 647.762 69.9432 646.164 69.6065 644.529C69.3708 643.376 68.7985 642.224 67.9231 640.923C66.2059 638.47 63.9501 636.575 61.5259 635.646C58.9334 634.642 56.2062 634.865 53.479 636.352C53.0077 636.612 52.4353 636.389 52.2333 635.869C51.9976 635.348 52.1996 634.717 52.671 634.494C55.8359 632.784 59.1354 632.487 62.1657 633.676C64.9265 634.754 67.519 636.872 69.4382 639.66C70.4819 641.184 71.1553 642.633 71.4583 644.045C71.9297 646.275 71.4583 648.505 70.1116 650.55C69.5392 651.33 68.8995 652.073 68.1924 652.705Z" fill="#EAC5E7"/>
<path d="M212.934 932.345C212.934 933.803 214.004 934.984 215.324 934.984C216.645 934.984 217.715 933.803 217.715 932.345C217.715 930.888 216.645 929.707 215.324 929.707C214.004 929.707 212.934 930.888 212.934 932.345Z" fill="#EAC5E7"/>
<path d="M220.274 936.286C220.274 937.743 221.344 938.924 222.664 938.924C223.984 938.924 225.055 937.743 225.055 936.286C225.055 934.828 223.984 933.647 222.664 933.647C221.344 933.647 220.274 934.828 220.274 936.286Z" fill="#EAC5E7"/>
<path d="M214.617 941.117C214.617 942.574 215.688 943.756 217.008 943.756C218.328 943.756 219.398 942.574 219.398 941.117C219.398 939.66 218.328 938.478 217.008 938.478C215.688 938.478 214.617 939.66 214.617 941.117Z" fill="#EAC5E7"/>
<path d="M167.077 1116.32C168.895 1114.54 170.713 1112.72 172.531 1110.82C174.417 1112.9 176.403 1114.95 178.659 1116.62C179.231 1117.06 180.04 1116.88 180.41 1116.25C180.814 1115.61 180.646 1114.72 180.073 1114.31C177.986 1112.75 176.168 1110.93 174.383 1108.92C176.067 1107.14 177.75 1105.32 179.4 1103.46C179.905 1102.9 179.905 1102.01 179.4 1101.49C178.895 1100.93 178.087 1100.93 177.615 1101.49C175.999 1103.31 174.316 1105.1 172.632 1106.88C172.262 1106.47 171.892 1106.03 171.555 1105.58C170.276 1104.06 168.929 1102.46 167.515 1100.97C167.01 1100.45 166.235 1100.45 165.73 1100.97C165.259 1101.53 165.259 1102.42 165.764 1102.94C167.111 1104.39 168.424 1105.95 169.703 1107.44C170.073 1107.88 170.444 1108.29 170.814 1108.74C169.03 1110.56 167.245 1112.38 165.461 1114.16L165.393 1114.24C164.922 1114.76 164.888 1115.61 165.326 1116.17C165.73 1116.8 166.538 1116.84 167.077 1116.32ZM183.44 677.347L184.316 677.198C188.053 676.641 192.127 676.381 196.773 676.344C198.625 676.344 200.645 676.344 203.002 676.418L203.776 676.418C205.46 676.418 207.547 676.418 208.322 677.867C208.759 678.685 208.658 679.763 208.019 681.026C206.975 683.145 205.089 685.932 203.002 687.531C200.376 689.575 197.312 690.244 194.349 689.389C190.208 688.2 183.912 683.814 183.541 678.239L183.44 677.347ZM206.806 679.019C206.806 678.945 206.806 678.908 206.773 678.871C206.739 678.834 206.604 678.611 205.864 678.462C205.224 678.35 204.45 678.35 203.743 678.35L202.935 678.35C200.611 678.276 198.625 678.276 196.773 678.276C192.564 678.313 188.861 678.536 185.427 679.019C186.336 683.108 191.521 686.601 194.787 687.568C197.211 688.274 199.77 687.716 201.958 686.007C203.81 684.557 205.527 681.956 206.436 680.097C206.705 679.577 206.806 679.205 206.806 679.019ZM246.671 747.48C246.671 747.443 246.671 747.406 246.704 747.332C246.94 746.44 247.007 745.845 246.94 744.841C246.94 744.581 247.108 744.358 247.344 744.321C247.58 744.321 247.782 744.507 247.815 744.767C247.883 745.919 247.815 746.588 247.546 747.592C247.479 747.852 247.243 748.001 247.007 747.926C246.805 747.852 246.671 747.666 246.671 747.48ZM243.405 743.689C243.405 743.503 243.506 743.318 243.674 743.243C244.381 742.946 245.122 742.797 245.896 742.76C246.132 742.76 246.334 742.946 246.334 743.206C246.334 743.466 246.166 743.689 245.93 743.689C245.257 743.726 244.617 743.875 243.977 744.098C243.741 744.172 243.506 744.061 243.438 743.801C243.405 743.801 243.405 743.726 243.405 743.689ZM245.459 739.229C245.459 739.081 245.526 738.932 245.627 738.858C245.829 738.709 246.098 738.746 246.233 738.932C246.704 739.601 247.108 740.307 247.445 741.088C247.546 741.311 247.445 741.608 247.243 741.719C247.041 741.831 246.772 741.719 246.671 741.496C246.368 740.79 245.997 740.121 245.56 739.527C245.492 739.452 245.459 739.341 245.459 739.229ZM248.522 741.608C248.522 741.422 248.623 741.273 248.758 741.162C249.095 740.976 249.398 740.716 249.903 740.27C250.038 740.158 250.206 740.01 250.374 739.861C250.576 739.712 250.846 739.75 250.98 739.935C251.115 740.158 251.081 740.456 250.913 740.604C250.745 740.753 250.576 740.902 250.442 741.013C249.903 741.496 249.566 741.794 249.129 742.017C248.927 742.128 248.657 742.017 248.556 741.794C248.522 741.757 248.522 741.682 248.522 741.608ZM248.623 743.912C248.623 743.801 248.657 743.726 248.691 743.615C248.826 743.392 249.095 743.355 249.297 743.503C249.869 743.949 250.442 744.358 251.048 744.73C251.25 744.841 251.351 745.139 251.216 745.362C251.115 745.585 250.846 745.696 250.644 745.548C250.004 745.176 249.364 744.73 248.758 744.247C248.691 744.172 248.623 744.061 248.623 743.912ZM138.256 938.144C138.256 938.107 138.256 938.07 138.29 937.996C138.526 937.104 138.593 936.509 138.526 935.506C138.526 935.245 138.694 935.022 138.93 934.985C139.165 934.985 139.367 935.171 139.401 935.431C139.468 936.583 139.401 937.252 139.132 938.256C139.064 938.516 138.829 938.665 138.593 938.59C138.391 938.516 138.256 938.33 138.256 938.144ZM134.99 934.353C134.99 934.167 135.091 933.982 135.26 933.907C135.967 933.61 136.707 933.461 137.482 933.424C137.717 933.424 137.92 933.61 137.92 933.87C137.92 934.13 137.751 934.353 137.515 934.353C136.842 934.39 136.202 934.539 135.563 934.762C135.327 934.837 135.091 934.725 135.024 934.465C134.99 934.465 134.99 934.39 134.99 934.353ZM137.044 929.893C137.044 929.745 137.111 929.596 137.212 929.522C137.414 929.373 137.684 929.41 137.818 929.596C138.29 930.265 138.694 930.971 139.031 931.752C139.132 931.975 139.031 932.272 138.829 932.384C138.627 932.495 138.357 932.384 138.256 932.161C137.953 931.454 137.583 930.785 137.145 930.191C137.078 930.116 137.044 930.005 137.044 929.893ZM140.108 932.272C140.108 932.086 140.209 931.938 140.344 931.826C140.68 931.64 140.983 931.38 141.488 930.934C141.623 930.823 141.791 930.674 141.96 930.525C142.162 930.377 142.431 930.414 142.566 930.6C142.701 930.823 142.667 931.12 142.499 931.269C142.33 931.417 142.162 931.566 142.027 931.677C141.488 932.161 141.152 932.458 140.714 932.681C140.512 932.792 140.243 932.681 140.142 932.458C140.108 932.421 140.108 932.346 140.108 932.272ZM140.209 934.576C140.209 934.465 140.243 934.391 140.276 934.279C140.411 934.056 140.68 934.019 140.882 934.167C141.455 934.613 142.027 935.022 142.633 935.394C142.835 935.506 142.936 935.803 142.802 936.026C142.701 936.249 142.431 936.36 142.229 936.212C141.589 935.84 140.95 935.394 140.344 934.911C140.276 934.836 140.209 934.725 140.209 934.576ZM74.0829 1049.79C74.0829 1049.27 74.1502 1048.71 74.3186 1048.12C75.2276 1045 78.5946 1041.95 81.0524 1041.17C81.5238 1041.02 82.0288 1040.91 82.5338 1040.84C81.4228 1037.82 78.9649 1035.07 75.4633 1035.11C74.9583 1035.11 74.5543 1034.67 74.5206 1034.11C74.5206 1033.55 74.9246 1033.1 75.4297 1033.1C77.6855 1033.07 79.773 1034 81.4901 1035.71C82.8369 1037.04 83.8806 1038.83 84.453 1040.8C86.6415 1040.98 88.7963 1041.95 90.3114 1043.55C92.8029 1046.15 93.308 1050.31 93.712 1053.69L93.7457 1053.96C93.813 1054.51 93.4426 1055.03 92.9713 1055.11C92.4662 1055.18 91.9949 1054.77 91.9275 1054.25L91.8939 1053.99C91.4898 1050.8 91.0521 1047.15 89.0656 1045.07C87.9882 1043.96 86.4731 1043.21 84.8907 1042.95C85.2274 1045.89 84.453 1049.53 82.9715 1051.99C81.9951 1053.58 80.3453 1054.62 78.6956 1054.66C77.2478 1054.74 75.901 1054.03 74.9583 1052.73C74.4196 1051.84 74.0829 1050.87 74.0829 1049.79ZM83.0725 1042.84C82.5675 1042.88 82.0625 1042.99 81.5911 1043.14C79.6383 1043.77 76.8101 1046.37 76.103 1048.75C75.8 1049.79 75.9347 1050.65 76.4734 1051.43C77.1805 1052.43 78.0895 1052.62 78.6956 1052.58C79.773 1052.54 80.8504 1051.84 81.4901 1050.8C82.8032 1048.68 83.4429 1045.33 83.0725 1042.84Z" fill="#EAC5E7"/>
<path d="M107.989 257.081C107.989 256.523 108.259 256.04 108.764 255.78C109.403 255.483 110.178 255.78 110.447 256.486C110.986 257.861 112.03 259.013 113.309 259.608C114.588 260.203 116.036 260.24 117.316 259.682C117.619 259.571 117.922 259.385 118.258 259.236C118.831 258.939 119.504 258.567 120.245 258.382C121.625 258.047 123.14 258.307 124.554 259.125C125.598 259.757 126.608 260.649 127.618 261.95C128.09 262.544 128.022 263.436 127.484 263.919C126.945 264.44 126.137 264.365 125.699 263.771C124.857 262.73 124.117 262.024 123.342 261.578C122.467 261.058 121.558 260.872 120.784 261.095C120.312 261.206 119.841 261.466 119.336 261.727L118.225 262.284C116.339 263.065 114.184 263.027 112.299 262.173C110.447 261.318 108.898 259.645 108.09 257.601C108.023 257.452 107.989 257.267 107.989 257.081ZM125.262 272.245C125.329 272.802 125.093 273.36 124.622 273.657C124.016 274.066 123.208 273.806 122.837 273.137C122.13 271.762 120.952 270.758 119.639 270.312C118.292 269.866 116.811 270.015 115.565 270.721C115.262 270.87 114.992 271.093 114.656 271.316C114.083 271.687 113.477 272.133 112.737 272.431C111.39 272.951 109.807 272.877 108.292 272.208C107.148 271.687 106.07 270.907 104.892 269.68C104.353 269.123 104.319 268.231 104.824 267.636C105.296 267.041 106.137 267.004 106.643 267.562C107.585 268.528 108.427 269.16 109.235 269.532C110.178 269.94 111.121 270.015 111.895 269.717C112.333 269.532 112.804 269.234 113.275 268.9C113.612 268.677 113.982 268.417 114.353 268.194C116.171 267.153 118.359 266.93 120.346 267.562C122.332 268.231 124.049 269.717 125.06 271.724C125.194 271.873 125.262 272.059 125.262 272.245ZM68.1924 94.18C65.9029 96.2985 62.9064 97.525 60.6505 97.6737C58.1927 97.8595 55.1288 96.7817 53.782 93.8827C53.277 92.7677 53.0413 91.3926 53.0413 89.7201C53.075 86.7839 54.0177 84.9256 55.8695 83.9964C57.452 83.2159 59.7078 83.1416 61.2229 84.6654C62.4013 85.8547 62.6034 87.5644 61.7616 88.8281C61.4586 89.2741 60.8525 89.3856 60.4485 89.0511C60.0445 88.7166 59.9435 88.0476 60.2465 87.6016C60.6842 86.9326 60.0445 86.2636 59.9772 86.1892C59.1018 85.2973 57.6203 85.4087 56.6439 85.8919C55.4992 86.4494 54.9605 87.6387 54.9268 89.7572C54.9268 91.0952 55.0951 92.1359 55.4655 92.9535C56.2736 94.7004 58.361 95.8154 60.5159 95.6295C62.9737 95.4437 66.6436 93.6597 68.5628 90.7979C69.6065 89.2369 69.9432 87.6387 69.6065 86.0034C69.3708 84.8513 68.7985 83.6991 67.9231 82.3983C66.2059 79.9453 63.9501 78.0498 61.5259 77.1206C58.9334 76.1171 56.2062 76.3401 53.479 77.8268C53.0077 78.0869 52.4353 77.8639 52.2333 77.3436C51.9976 76.8233 52.1996 76.1915 52.671 75.9685C55.8359 74.2588 59.1354 73.9615 62.1657 75.1508C64.9265 76.2286 67.519 78.3471 69.4382 81.1346C70.4819 82.6584 71.1553 84.1079 71.4583 85.5202C71.9297 87.7502 71.4583 89.9802 70.1116 92.0244C69.5392 92.8049 68.8995 93.5482 68.1924 94.18Z" fill="#EAC5E7"/>
<path d="M212.934 373.821C212.934 375.279 214.004 376.46 215.324 376.46C216.645 376.46 217.715 375.279 217.715 373.821C217.715 372.364 216.645 371.182 215.324 371.182C214.004 371.182 212.934 372.364 212.934 373.821Z" fill="#EAC5E7"/>
<path d="M220.274 377.76C220.274 379.218 221.344 380.399 222.664 380.399C223.984 380.399 225.055 379.218 225.055 377.76C225.055 376.303 223.984 375.122 222.664 375.122C221.344 375.122 220.274 376.303 220.274 377.76Z" fill="#EAC5E7"/>
<path d="M214.617 382.592C214.617 384.049 215.688 385.231 217.008 385.231C218.328 385.231 219.398 384.049 219.398 382.592C219.398 381.134 218.328 379.953 217.008 379.953C215.688 379.953 214.617 381.134 214.617 382.592Z" fill="#EAC5E7"/>
<path d="M167.077 557.795C168.895 556.011 170.713 554.19 172.531 552.295C174.417 554.376 176.403 556.42 178.659 558.093C179.231 558.539 180.04 558.353 180.41 557.721C180.814 557.089 180.646 556.197 180.073 555.788C177.986 554.227 176.168 552.406 174.383 550.399C176.067 548.615 177.75 546.794 179.4 544.936C179.905 544.378 179.905 543.486 179.4 542.966C178.895 542.408 178.087 542.408 177.615 542.966C175.999 544.787 174.316 546.571 172.632 548.355C172.262 547.946 171.892 547.5 171.555 547.054C170.276 545.53 168.929 543.932 167.515 542.446C167.01 541.925 166.235 541.925 165.73 542.446C165.259 543.003 165.259 543.895 165.764 544.415C167.111 545.865 168.424 547.426 169.703 548.913C170.073 549.359 170.444 549.767 170.814 550.213C169.03 552.035 167.245 553.856 165.461 555.64L165.393 555.714C164.922 556.234 164.888 557.089 165.326 557.647C165.73 558.279 166.538 558.316 167.077 557.795ZM183.44 118.822L184.316 118.673C188.053 118.116 192.127 117.856 196.773 117.818C198.625 117.818 200.645 117.818 203.002 117.893L203.776 117.893C205.46 117.893 207.547 117.893 208.322 119.342C208.759 120.16 208.658 121.238 208.019 122.501C206.975 124.62 205.089 127.407 203.002 129.005C200.376 131.05 197.312 131.719 194.349 130.864C190.208 129.674 183.912 125.289 183.541 119.714L183.44 118.822ZM206.806 120.494C206.806 120.42 206.806 120.383 206.773 120.346C206.739 120.309 206.604 120.086 205.864 119.937C205.224 119.825 204.45 119.825 203.743 119.825L202.935 119.825C200.611 119.751 198.625 119.751 196.773 119.751C192.564 119.788 188.861 120.011 185.427 120.494C186.336 124.583 191.521 128.076 194.787 129.043C197.211 129.749 199.77 129.191 201.958 127.482C203.81 126.032 205.527 123.431 206.436 121.572C206.705 121.052 206.806 120.68 206.806 120.494ZM246.671 188.955C246.671 188.918 246.671 188.881 246.704 188.806C246.94 187.914 247.007 187.32 246.94 186.316C246.94 186.056 247.108 185.833 247.344 185.796C247.58 185.796 247.782 185.982 247.815 186.242C247.883 187.394 247.815 188.063 247.546 189.067C247.479 189.327 247.243 189.475 247.007 189.401C246.805 189.327 246.671 189.141 246.671 188.955ZM243.405 185.164C243.405 184.978 243.506 184.792 243.674 184.718C244.381 184.421 245.122 184.272 245.896 184.235C246.132 184.235 246.334 184.421 246.334 184.681C246.334 184.941 246.166 185.164 245.93 185.164C245.257 185.201 244.617 185.35 243.977 185.573C243.741 185.647 243.506 185.536 243.438 185.276C243.405 185.276 243.405 185.201 243.405 185.164ZM245.459 180.704C245.459 180.555 245.526 180.407 245.627 180.332C245.829 180.184 246.098 180.221 246.233 180.407C246.704 181.076 247.108 181.782 247.445 182.562C247.546 182.785 247.445 183.083 247.243 183.194C247.041 183.306 246.772 183.194 246.671 182.971C246.368 182.265 245.997 181.596 245.56 181.001C245.492 180.927 245.459 180.816 245.459 180.704ZM248.522 183.083C248.522 182.897 248.623 182.748 248.758 182.637C249.095 182.451 249.398 182.191 249.903 181.745C250.038 181.633 250.206 181.485 250.374 181.336C250.576 181.187 250.846 181.224 250.98 181.41C251.115 181.633 251.081 181.931 250.913 182.079C250.745 182.228 250.576 182.377 250.442 182.488C249.903 182.971 249.566 183.269 249.129 183.492C248.927 183.603 248.657 183.492 248.556 183.269C248.522 183.231 248.522 183.157 248.522 183.083ZM248.623 185.387C248.623 185.276 248.657 185.201 248.691 185.09C248.826 184.867 249.095 184.83 249.297 184.978C249.869 185.424 250.442 185.833 251.048 186.205C251.25 186.316 251.351 186.614 251.216 186.837C251.115 187.06 250.846 187.171 250.644 187.022C250.004 186.651 249.364 186.205 248.758 185.722C248.691 185.647 248.623 185.536 248.623 185.387ZM138.256 379.619C138.256 379.582 138.256 379.545 138.29 379.471C138.526 378.579 138.593 377.984 138.526 376.98C138.526 376.72 138.694 376.497 138.93 376.46C139.165 376.46 139.367 376.646 139.401 376.906C139.468 378.058 139.401 378.727 139.132 379.731C139.064 379.991 138.829 380.14 138.593 380.065C138.391 379.991 138.256 379.805 138.256 379.619ZM134.99 375.828C134.99 375.642 135.091 375.457 135.26 375.382C135.967 375.085 136.707 374.936 137.482 374.899C137.717 374.899 137.92 375.085 137.92 375.345C137.92 375.605 137.751 375.828 137.515 375.828C136.842 375.865 136.202 376.014 135.563 376.237C135.327 376.311 135.091 376.2 135.024 375.94C134.99 375.94 134.99 375.865 134.99 375.828ZM137.044 371.368C137.044 371.22 137.111 371.071 137.212 370.997C137.414 370.848 137.684 370.885 137.818 371.071C138.29 371.74 138.694 372.446 139.031 373.227C139.132 373.45 139.031 373.747 138.829 373.858C138.627 373.97 138.357 373.858 138.256 373.635C137.953 372.929 137.583 372.26 137.145 371.666C137.078 371.591 137.044 371.48 137.044 371.368ZM140.108 373.747C140.108 373.561 140.209 373.412 140.344 373.301C140.68 373.115 140.983 372.855 141.488 372.409C141.623 372.297 141.791 372.149 141.96 372C142.162 371.851 142.431 371.889 142.566 372.074C142.701 372.297 142.667 372.595 142.499 372.743C142.33 372.892 142.162 373.041 142.027 373.152C141.488 373.635 141.152 373.933 140.714 374.156C140.512 374.267 140.243 374.156 140.142 373.933C140.108 373.896 140.108 373.821 140.108 373.747ZM140.209 376.051C140.209 375.94 140.243 375.865 140.276 375.754C140.411 375.531 140.68 375.494 140.882 375.642C141.455 376.088 142.027 376.497 142.633 376.869C142.835 376.98 142.936 377.278 142.802 377.501C142.701 377.724 142.431 377.835 142.229 377.687C141.589 377.315 140.95 376.869 140.344 376.386C140.276 376.311 140.209 376.2 140.209 376.051ZM74.0829 491.267C74.0829 490.747 74.1502 490.189 74.3186 489.595C75.2276 486.473 78.5946 483.425 81.0524 482.645C81.5238 482.496 82.0288 482.385 82.5338 482.31C81.4228 479.3 78.9649 476.549 75.4633 476.587C74.9583 476.587 74.5543 476.141 74.5206 475.583C74.5206 475.026 74.9246 474.58 75.4297 474.58C77.6855 474.542 79.773 475.472 81.4901 477.181C82.8369 478.519 83.8806 480.303 84.453 482.273C86.6415 482.459 88.7963 483.425 90.3114 485.023C92.8029 487.625 93.308 491.788 93.712 495.17L93.7457 495.43C93.813 495.987 93.4426 496.508 92.9713 496.582C92.4662 496.656 91.9949 496.248 91.9275 495.727L91.8939 495.467C91.4898 492.271 91.0521 488.629 89.0656 486.547C87.9882 485.432 86.4731 484.689 84.8907 484.429C85.2274 487.365 84.453 491.007 82.9715 493.46C81.9951 495.058 80.3453 496.099 78.6956 496.136C77.2478 496.21 75.901 495.504 74.9583 494.203C74.4196 493.311 74.0829 492.345 74.0829 491.267ZM83.0725 484.317C82.5675 484.354 82.0625 484.466 81.5911 484.615C79.6383 485.246 76.8101 487.848 76.103 490.227C75.8 491.267 75.9347 492.122 76.4734 492.903C77.1805 493.906 78.0895 494.092 78.6956 494.055C79.773 494.018 80.8504 493.312 81.4901 492.271C82.8032 490.152 83.4429 486.807 83.0725 484.317Z" fill="#EAC5E7"/>
</g>
</svg>
