<svg width="50" height="53" viewBox="0 0 50 53" fill="none" xmlns="http://www.w3.org/2000/svg">
<path d="M24.5625 53C23.5625 53 22.6042 52.8125 21.6875 52.4375C20.7708 52.0625 19.9583 51.5208 19.25 50.8125L6.5 38L8.375 36.0625C9.04166 35.3958 9.82333 34.9483 10.72 34.72C11.6167 34.4917 12.5017 34.5017 13.375 34.75L17.5 35.9375V15.5C17.5 14.7917 17.74 14.1983 18.22 13.72C18.7 13.2417 19.2933 13.0017 20 13C20.7067 12.9983 21.3008 13.2383 21.7825 13.72C22.2642 14.2017 22.5033 14.795 22.5 15.5V33H25V25.5C25 24.7917 25.24 24.1983 25.72 23.72C26.2 23.2417 26.7933 23.0017 27.5 23C28.2067 22.9983 28.8008 23.2383 29.2825 23.72C29.7642 24.2017 30.0033 24.795 30 25.5V33H32.5V28C32.5 27.2917 32.74 26.6983 33.22 26.22C33.7 25.7417 34.2933 25.5017 35 25.5C35.7067 25.4983 36.3008 25.7383 36.7825 26.22C37.2642 26.7017 37.5033 27.295 37.5 28V33H40C40 32.2917 40.24 31.6983 40.72 31.22C41.2 30.7417 41.7933 30.5017 42.5 30.5C43.2067 30.4983 43.8008 30.7383 44.2825 31.22C44.7641 31.7017 45.0033 32.295 45 33V43C45 45.75 44.0208 48.1042 42.0625 50.0625C40.1042 52.0208 37.75 53 35 53H24.5625ZM0 15.5V3H3.75V8.0625C6.75 5.60417 10.0625 3.72917 13.6875 2.4375C17.3125 1.14583 21.0833 0.5 25 0.5C31.0833 0.5 36.4583 1.89583 41.125 4.6875C45.7917 7.47917 48.75 11.0833 50 15.5H46.0625C44.4791 12 41.8017 9.25 38.03 7.25C34.2583 5.25 29.915 4.25 25 4.25C21.3333 4.25 17.8125 4.89583 14.4375 6.1875C11.0625 7.47917 8 9.33333 5.25 11.75H12.5V15.5H0Z" fill="white"/>
</svg>
