<svg width="38" height="38" viewBox="0 0 38 38" fill="none" xmlns="http://www.w3.org/2000/svg">
<path d="M13.1728 24.2929C14.6317 24.2929 15.8192 23.7754 15.8192 22.1384C15.8192 20.4674 14.8268 19.8143 13.2491 19.8058L9.34732 19.8058V24.2929L13.1728 24.2929ZM12.7147 13.3H9.3558L9.3558 17.1L12.9777 17.1C14.2585 17.1 15.1661 16.5402 15.1661 15.1576C15.1661 13.6562 14.004 13.3 12.7147 13.3ZM23.6991 19.6446H28.975C28.8308 18.0754 28.0165 17.1254 26.3879 17.1254C24.8357 17.1254 23.8009 18.0924 23.6991 19.6446ZM32.5714 0L5.42857 0C2.43437 0 0 2.43437 0 5.42857L0 32.5714C0 35.5656 2.43437 38 5.42857 38L32.5714 38C35.5656 38 38 35.5656 38 32.5714L38 5.42857C38 2.43437 35.5656 0 32.5714 0ZM29.6451 12.9777L23.046 12.9777V11.3746L29.6451 11.3746V12.9777ZM16.4299 17.9567C18.4317 18.525 19.3987 20.2893 19.3987 22.3335C19.3987 25.6415 16.625 27.058 13.6647 27.075L5.76786 27.075L5.76786 10.7893H13.4442C16.2348 10.7893 18.6522 11.5781 18.6522 14.8183C18.6522 16.4554 17.8888 17.2612 16.4299 17.9567ZM26.4982 14.6826C30.1879 14.6826 32.2321 17.592 32.2321 21.0781C32.2321 21.2138 32.2237 21.358 32.2152 21.5022C32.2152 21.5701 32.2067 21.6295 32.2067 21.6888H23.7076C23.7076 23.5719 24.7 24.683 26.6 24.683C27.5839 24.683 28.8478 24.1571 29.1616 23.1478H32.0201C31.1379 25.8536 29.3143 27.1174 26.4982 27.1174C22.783 27.1174 20.4674 24.5982 20.4674 20.9254C20.4674 17.3799 22.9018 14.6826 26.4982 14.6826Z" fill="white"/>
</svg>
