<svg width="118" height="200" viewBox="0 0 118 200" fill="none" xmlns="http://www.w3.org/2000/svg">
<path fill-rule="evenodd" clip-rule="evenodd" d="M148.166 87.383C152.289 118.734 139.232 142.224 126.789 162.217C116.007 179.54 102.085 190.675 85.3705 188.278C67.924 185.776 50.9464 171.939 37.908 149.472C22.7047 123.274 5.07328 89.1672 10.6334 59.4944C16.0236 30.7291 42.5172 39.9557 60.1515 30.7656C76.2227 22.3901 89.0668 -1.91236 106.699 9.42998C126.75 22.3283 143.798 54.1648 148.166 87.383Z" fill="#F5F5F5"/>
<path fill-rule="evenodd" clip-rule="evenodd" d="M99.0616 149.218C81.917 151.43 65.7609 139.436 51.7375 128.103C39.5861 118.283 30.3426 106.058 28.2911 92.0228C26.1498 77.3725 30.6094 63.5791 40.8286 53.4669C52.7446 41.6756 68.701 28.1525 86.8679 34.059C104.479 39.7849 104.617 61.8119 113.505 77.0958C121.606 91.025 138.185 102.872 135.291 117.321C132.001 133.751 117.228 146.873 99.0616 149.218Z" fill="#282828"/>
<path fill-rule="evenodd" clip-rule="evenodd" d="M84.3075 128.374C71.0418 130.161 58.8389 121.762 48.2663 113.811C39.1052 106.921 32.2369 98.2751 30.9523 88.2466C29.6114 77.779 33.3419 67.847 41.4352 60.4835C50.8724 51.8973 63.4615 42.0229 77.3437 46.0384C90.8013 49.9311 90.4408 65.7058 96.9708 76.5474C102.922 86.428 115.454 94.7173 112.917 105.1C110.032 116.907 98.3636 126.48 84.3075 128.374Z" fill="#F5F5F5"/>
<path fill-rule="evenodd" clip-rule="evenodd" d="M78.4708 118.749C68.5045 120.092 59.3366 113.781 51.3936 107.808C44.5109 102.631 39.3508 96.1359 38.3857 88.6016C37.3783 80.7374 40.181 73.2757 46.2614 67.7435C53.3515 61.2928 62.8095 53.8743 73.239 56.8911C83.3495 59.8156 83.0787 71.667 87.9846 79.8121C92.4557 87.2353 101.871 93.4629 99.9647 101.263C97.7973 110.134 89.031 117.326 78.4708 118.749Z" fill="#F5F5F5"/>
<path fill-rule="evenodd" clip-rule="evenodd" d="M76.1803 110.189C68.9913 111.158 62.3783 106.606 56.6488 102.297C51.6842 98.5633 47.9621 93.8779 47.2659 88.4433C46.5393 82.7706 48.5609 77.3883 52.9469 73.3978C58.0611 68.7448 64.8834 63.3937 72.4064 65.5697C79.6994 67.6793 79.504 76.2279 83.0428 82.1032C86.2679 87.4577 93.0591 91.9498 91.6843 97.5763C90.1209 103.975 83.7975 109.163 76.1803 110.189Z" fill="#282828"/>
</svg>
