<svg width="118" height="200" viewBox="0 0 118 200" fill="none" xmlns="http://www.w3.org/2000/svg">
<path fill-rule="evenodd" clip-rule="evenodd" d="M148.166 87.383C152.289 118.734 139.232 142.224 126.789 162.217C116.007 179.54 102.085 190.675 85.3705 188.278C67.924 185.776 50.9464 171.939 37.908 149.472C22.7047 123.274 5.07328 89.1672 10.6334 59.4944C16.0236 30.7291 42.5172 39.9557 60.1515 30.7656C76.2227 22.3901 89.0668 -1.91236 106.699 9.42998C126.75 22.3283 143.798 54.1648 148.166 87.383Z" fill="white"/>
<path fill-rule="evenodd" clip-rule="evenodd" d="M99.0616 149.219C81.917 151.431 65.7609 139.438 51.7375 128.104C39.5861 118.284 30.3426 106.06 28.2911 92.0242C26.1498 77.3739 30.6094 63.5804 40.8286 53.4682C52.7446 41.6769 68.701 28.1538 86.8679 34.0603C104.479 39.7862 104.617 61.8132 113.505 77.0972C121.606 91.0264 138.185 102.874 135.291 117.322C132.001 133.753 117.228 146.875 99.0616 149.219Z" fill="#97491B"/>
<path fill-rule="evenodd" clip-rule="evenodd" d="M84.3075 128.375C71.0418 130.162 58.8389 121.763 48.2663 113.812C39.1052 106.922 32.2369 98.2759 30.9523 88.2475C29.6114 77.7799 33.3419 67.8479 41.4352 60.4844C50.8724 51.8982 63.4615 42.0238 77.3437 46.0392C90.8013 49.9319 90.4408 65.7066 96.9708 76.5483C102.922 86.4289 115.454 94.7181 112.917 105.101C110.032 116.908 98.3636 126.481 84.3075 128.375Z" fill="white"/>
<path fill-rule="evenodd" clip-rule="evenodd" d="M78.4718 118.75C68.5054 120.093 59.3375 113.783 51.3945 107.809C44.5119 102.633 39.3518 96.1372 38.3867 88.603C37.3793 80.7388 40.182 73.277 46.2624 67.7449C53.3524 61.2942 62.8105 53.8757 73.24 56.8925C83.3505 59.817 83.0797 71.6683 87.9856 79.8135C92.4567 87.2367 101.872 93.4643 99.9657 101.265C97.7983 110.135 89.032 117.327 78.4718 118.75Z" fill="white"/>
<path fill-rule="evenodd" clip-rule="evenodd" d="M76.1783 110.189C68.9893 111.158 62.3763 106.606 56.6468 102.297C51.6822 98.5633 47.9601 93.8779 47.264 88.4433C46.5373 82.7706 48.559 77.3883 52.9449 73.3978C58.0591 68.7448 64.8814 63.3937 72.4045 65.5697C79.6974 67.6793 79.5021 76.2279 83.0408 82.1032C86.2659 87.4577 93.0571 91.9498 91.6823 97.5763C90.119 103.975 83.7956 109.163 76.1783 110.189Z" fill="#97491B"/>
</svg>
