<svg width="24" height="24" viewBox="0 0 24 24" fill="none" xmlns="http://www.w3.org/2000/svg">
<path d="M1 10.7778C1 6.16878 1 3.86367 2.43244 2.43244C3.86367 1 6.16878 1 10.7778 1L13.2222 1C17.8312 1 20.1363 1 21.5676 2.43244C23 3.86367 23 6.16878 23 10.7778V13.2222C23 17.8312 23 20.1363 21.5676 21.5676C20.1363 23 17.8312 23 13.2222 23H10.7778C6.16878 23 3.86367 23 2.43244 21.5676C1 20.1363 1 17.8312 1 13.2222L1 10.7778Z" fill="white" stroke="white" stroke-width="2"/>
<path d="M18.8385 6.49988C18.8385 7.23626 18.2416 7.83321 17.5052 7.83321C16.7688 7.83321 16.1719 7.23626 16.1719 6.49988C16.1719 5.7635 16.7688 5.16654 17.5052 5.16654C18.2416 5.16654 18.8385 5.7635 18.8385 6.49988Z" fill="white" stroke="#252525"/>
<path d="M11.9948 15.6668C14.0198 15.6668 15.6615 14.0252 15.6615 12.0001C15.6615 9.97508 14.0198 8.33346 11.9948 8.33346C9.96975 8.33346 8.32812 9.97508 8.32812 12.0001C8.32812 14.0252 9.96975 15.6668 11.9948 15.6668Z" fill="white" stroke="#252525" stroke-width="2"/>
</svg>
