<svg width="41" height="40" viewBox="0 0 41 40" fill="none" xmlns="http://www.w3.org/2000/svg">
<path d="M1.1875 17.8889C1.1875 9.92789 1.1875 5.94633 3.66172 3.47422C6.13383 1 10.1154 1 18.0764 1L22.2986 1C30.2596 1 34.2412 1 36.7133 3.47422C39.1875 5.94633 39.1875 9.92789 39.1875 17.8889V22.1111C39.1875 30.0721 39.1875 34.0537 36.7133 36.5258C34.2412 39 30.2596 39 22.2986 39L18.0764 39C10.1154 39 6.13383 39 3.66172 36.5258C1.1875 34.0537 1.1875 30.0721 1.1875 22.1111L1.1875 17.8889Z" fill="white" stroke="white" stroke-width="2"/>
<path d="M29.7135 13.6659C31.4624 13.6659 32.8802 12.2481 32.8802 10.4992C32.8802 8.75028 31.4624 7.33252 29.7135 7.33252C27.9646 7.33252 26.5469 8.75028 26.5469 10.4992C26.5469 12.2481 27.9646 13.6659 29.7135 13.6659Z" fill="white"/>
<path d="M20.1615 26.3341C23.6593 26.3341 26.4948 23.4986 26.4948 20.0008C26.4948 16.503 23.6593 13.6675 20.1615 13.6675C16.6637 13.6675 13.8281 16.503 13.8281 20.0008C13.8281 23.4986 16.6637 26.3341 20.1615 26.3341Z" fill="white" stroke="#97491B" stroke-width="2"/>
</svg>
