<svg width="38" height="38" viewBox="0 0 38 38" fill="none" xmlns="http://www.w3.org/2000/svg">
<path fill-rule="evenodd" clip-rule="evenodd" d="M2.47422 2.47422C-2.5332e-07 4.94633 0 8.92789 0 16.8889V21.1111C0 29.0721 -2.5332e-07 33.0537 2.47422 35.5258C4.94633 38 8.92789 38 16.8889 38H21.1111C29.0721 38 33.0537 38 35.5258 35.5258C38 33.0537 38 29.0721 38 21.1111V16.8889C38 8.92789 38 4.94633 35.5258 2.47422C33.0537 0 29.0721 0 21.1111 0H16.8889C8.92789 0 4.94633 0 2.47422 2.47422ZM25.6667 19.0008C25.6667 22.4986 22.8311 25.3341 19.3333 25.3341C15.8355 25.3341 13 22.4986 13 19.0008C13 15.503 15.8355 12.6675 19.3333 12.6675C22.8311 12.6675 25.6667 15.503 25.6667 19.0008Z" fill="white"/>
</svg>
