<svg width="39" height="38" viewBox="0 0 39 38" fill="none" xmlns="http://www.w3.org/2000/svg">
<path d="M34.1528 0C35.2726 0 36.3465 0.44484 37.1383 1.23666C37.9302 2.02848 38.375 3.10242 38.375 4.22222V33.7778C38.375 34.8976 37.9302 35.9715 37.1383 36.7633C36.3465 37.5552 35.2726 38 34.1528 38H4.59722C3.47742 38 2.40348 37.5552 1.61166 36.7633C0.81984 35.9715 0.375 34.8976 0.375 33.7778V4.22222C0.375 3.10242 0.81984 2.02848 1.61166 1.23666C2.40348 0.44484 3.47742 0 4.59722 0H34.1528ZM33.0972 32.7222V21.5333C33.0972 19.7081 32.3721 17.9575 31.0815 16.6669C29.7908 15.3762 28.0403 14.6511 26.215 14.6511C24.4206 14.6511 22.3306 15.7489 21.3172 17.3956V15.0522H15.4272V32.7222H21.3172V22.3144C21.3172 20.6889 22.6261 19.3589 24.2517 19.3589C25.0355 19.3589 25.7873 19.6703 26.3416 20.2246C26.8958 20.7788 27.2072 21.5306 27.2072 22.3144V32.7222H33.0972ZM8.56611 11.7378C9.50675 11.7378 10.4089 11.3641 11.074 10.699C11.7391 10.0339 12.1128 9.13175 12.1128 8.19111C12.1128 6.22778 10.5294 4.62333 8.56611 4.62333C7.61988 4.62333 6.7124 4.99922 6.04331 5.66831C5.37422 6.3374 4.99833 7.24488 4.99833 8.19111C4.99833 10.1544 6.60278 11.7378 8.56611 11.7378ZM11.5006 32.7222V15.0522H5.65278V32.7222H11.5006Z" fill="white"/>
</svg>
