<svg width="97" height="97" viewBox="0 0 97 97" fill="none" xmlns="http://www.w3.org/2000/svg">
<path d="M69.9545 36.4465C69.9534 32.622 68.927 28.8675 66.9818 25.5729C65.0366 22.2783 62.2436 19.5637 58.8928 17.711C55.542 15.8584 51.7556 14.9352 47.9268 15.0374C44.098 15.1396 40.3664 16.2634 37.1195 18.2921C33.8726 20.3208 31.2288 23.1805 29.4626 26.5741C27.6964 29.9678 26.8723 33.7717 27.0758 37.5908C27.2793 41.4099 28.503 45.105 30.6199 48.2924C32.7367 51.4797 35.6695 54.0431 39.1137 55.7163V64.3819C32.4779 62.158 26.8502 57.6506 23.2363 51.6651C19.6223 45.6795 18.2575 38.6058 19.3859 31.708C20.5142 24.8102 24.0621 18.5378 29.3955 14.0115C34.729 9.48518 41.5005 7 48.5 7C55.4995 7 62.271 9.48518 67.6045 14.0115C72.9379 18.5378 76.4858 24.8102 77.6141 31.708C78.7425 38.6058 77.3777 45.6795 73.7637 51.6651C70.1498 57.6506 64.5221 62.158 57.8863 64.3819L57.8863 55.7163C61.5056 53.9581 64.5565 51.2187 66.6905 47.8112C68.8246 44.4036 69.9556 40.4654 69.9545 36.4465ZM32.4091 36.4465C32.4089 38.9973 33.0168 41.5114 34.1827 43.781C35.3485 46.0506 37.0388 48.0104 39.1137 49.4984V37.7854C39.1137 35.2997 40.1026 32.9158 41.8629 31.1581C43.6231 29.4004 46.0106 28.413 48.5 28.413C50.9894 28.413 53.3769 29.4004 55.1371 31.1581C56.8974 32.9158 57.8863 35.2997 57.8863 37.7854V49.4984C60.1255 47.8926 61.914 45.7393 63.0802 43.245C64.2464 40.7507 64.7513 37.999 64.5464 35.2539C64.3415 32.5088 63.4337 29.8623 61.91 27.5681C60.3864 25.274 58.298 23.4093 55.8452 22.1527C53.3923 20.8961 50.6573 20.2899 47.9024 20.3921C45.1475 20.4943 42.4651 21.3016 40.1124 22.7365C37.7598 24.1714 35.8158 26.1858 34.4669 28.5866C33.118 30.9873 32.4094 33.6938 32.4091 36.4465ZM44.4773 37.7854C44.4773 36.7201 44.9011 35.6984 45.6555 34.9452C46.4099 34.1919 47.4331 33.7687 48.5 33.7687C49.5669 33.7687 50.5901 34.1919 51.3445 34.9452C52.0989 35.6984 52.5227 36.7201 52.5227 37.7854L52.5227 76.2929L59.0663 69.759C59.8289 69.0495 60.8375 68.6632 61.8797 68.6816C62.9218 68.6999 63.9162 69.1215 64.6532 69.8574C65.3902 70.5934 65.8124 71.5862 65.8308 72.6268C65.8492 73.6675 65.4624 74.6746 64.7518 75.436L51.3427 88.8253C50.5885 89.5775 49.566 90 48.5 90C47.434 90 46.4115 89.5775 45.6573 88.8253L32.2482 75.436C31.853 75.0683 31.536 74.6248 31.3161 74.1321C31.0963 73.6394 30.978 73.1075 30.9685 72.5682C30.959 72.0288 31.0583 71.4931 31.2607 70.9929C31.463 70.4928 31.7641 70.0384 32.1461 69.657C32.5281 69.2756 32.9831 68.9749 33.484 68.7729C33.9849 68.5709 34.5214 68.4716 35.0616 68.4812C35.6017 68.4907 36.1344 68.6087 36.6278 68.8283C37.1213 69.0478 37.5654 69.3643 37.9337 69.759L44.4773 76.2929L44.4773 37.7854Z" fill="white" fill-opacity="0.5"/>
</svg>
