<svg width="97" height="97" viewBox="0 0 97 97" fill="none" xmlns="http://www.w3.org/2000/svg">
<path d="M60.5535 68.9545C64.378 68.9534 68.1325 67.927 71.4271 65.9818C74.7217 64.0366 77.4363 61.2436 79.289 57.8928C81.1416 54.542 82.0648 50.7556 81.9626 46.9268C81.8604 43.098 80.7366 39.3664 78.7079 36.1195C76.6792 32.8726 73.8195 30.2288 70.4259 28.4626C67.0322 26.6964 63.2283 25.8723 59.4092 26.0758C55.5901 26.2793 51.895 27.503 48.7076 29.6199C45.5203 31.7367 42.9569 34.6695 41.2837 38.1137L32.6181 38.1137C34.842 31.4779 39.3494 25.8502 45.3349 22.2363C51.3205 18.6223 58.3942 17.2575 65.292 18.3859C72.1898 19.5142 78.4622 23.0621 82.9885 28.3955C87.5148 33.729 90 40.5005 90 47.5C90 54.4995 87.5148 61.271 82.9885 66.6045C78.4622 71.9379 72.1898 75.4858 65.292 76.6141C58.3942 77.7425 51.3205 76.3777 45.3349 72.7637C39.3494 69.1498 34.842 63.5221 32.6181 56.8863L41.2837 56.8863C43.0419 60.5056 45.7813 63.5565 49.1888 65.6905C52.5964 67.8246 56.5346 68.9556 60.5535 68.9545ZM60.5535 31.4091C58.0027 31.4089 55.4886 32.0168 53.219 33.1827C50.9494 34.3485 48.9896 36.0388 47.5016 38.1137L59.2146 38.1137C61.7003 38.1137 64.0842 39.1026 65.8419 40.8628C67.5996 42.6231 68.587 45.0106 68.587 47.5C68.587 49.9894 67.5996 52.3769 65.8419 54.1371C64.0842 55.8974 61.7003 56.8863 59.2146 56.8863L47.5016 56.8863C49.1074 59.1255 51.2607 60.914 53.755 62.0802C56.2493 63.2464 59.001 63.7513 61.7461 63.5464C64.4912 63.3415 67.1377 62.4337 69.4319 60.91C71.726 59.3864 73.5907 57.298 74.8473 54.8452C76.1039 52.3923 76.7101 49.6573 76.6079 46.9024C76.5057 44.1475 75.6984 41.4651 74.2635 39.1124C72.8286 36.7598 70.8142 34.8158 68.4134 33.4669C66.0127 32.118 63.3062 31.4094 60.5535 31.4091ZM59.2146 43.4773C60.2799 43.4773 61.3015 43.9011 62.0548 44.6555C62.8081 45.4099 63.2313 46.4331 63.2313 47.5C63.2313 48.5669 62.8081 49.5901 62.0548 50.3445C61.3015 51.0989 60.2799 51.5227 59.2146 51.5227L20.7071 51.5227L27.241 58.0663C27.9505 58.8289 28.3368 59.8375 28.3184 60.8797C28.3001 61.9218 27.8785 62.9162 27.1426 63.6532C26.4066 64.3902 25.4138 64.8124 24.3732 64.8308C23.3325 64.8492 22.3254 64.4624 21.564 63.7518L8.17472 50.3427C7.42251 49.5885 7 48.566 7 47.5C7 46.434 7.42251 45.4115 8.17472 44.6573L21.564 31.2482C21.9317 30.853 22.3752 30.536 22.8679 30.3161C23.3606 30.0963 23.8925 29.978 24.4318 29.9685C24.9712 29.959 25.5069 30.0583 26.007 30.2606C26.5072 30.463 26.9616 30.7641 27.343 31.1461C27.7244 31.5281 28.0251 31.9831 28.2271 32.484C28.4291 32.9849 28.5284 33.5214 28.5188 34.0616C28.5093 34.6017 28.3913 35.1344 28.1717 35.6278C27.9522 36.1213 27.6357 36.5654 27.241 36.9337L20.7071 43.4773L59.2146 43.4773Z" fill="white" fill-opacity="0.5"/>
</svg>
