<svg width="97" height="97" viewBox="0 0 97 97" fill="none" xmlns="http://www.w3.org/2000/svg">
<path d="M35.4465 26.0455C31.622 26.0466 27.8675 27.073 24.5729 29.0182C21.2783 30.9634 18.5637 33.7564 16.711 37.1072C14.8584 40.458 13.9352 44.2444 14.0374 48.0732C14.1396 51.902 15.2634 55.6336 17.2921 58.8805C19.3208 62.1274 22.1805 64.7712 25.5741 66.5374C28.9678 68.3036 32.7717 69.1277 36.5908 68.9242C40.4099 68.7207 44.105 67.497 47.2924 65.3801C50.4797 63.2633 53.0431 60.3305 54.7163 56.8863L63.3819 56.8863C61.158 63.5221 56.6506 69.1498 50.665 72.7637C44.6795 76.3777 37.6058 77.7425 30.708 76.6141C23.8102 75.4858 17.5378 71.9379 13.0115 66.6045C8.48518 61.271 6 54.4995 6 47.5C6 40.5005 8.48518 33.729 13.0115 28.3955C17.5378 23.0621 23.8102 19.5142 30.708 18.3859C37.6058 17.2575 44.6795 18.6223 50.6651 22.2363C56.6506 25.8502 61.158 31.4779 63.3819 38.1137L54.7163 38.1137C52.9581 34.4944 50.2187 31.4435 46.8112 29.3095C43.4036 27.1754 39.4654 26.0444 35.4465 26.0455ZM35.4465 63.5909C37.9973 63.5911 40.5114 62.9832 42.781 61.8173C45.0506 60.6515 47.0104 58.9612 48.4984 56.8863L36.7854 56.8863C34.2997 56.8863 31.9158 55.8974 30.1581 54.1371C28.4004 52.3769 27.413 49.9894 27.413 47.5C27.413 45.0106 28.4004 42.6231 30.1581 40.8628C31.9158 39.1026 34.2997 38.1137 36.7854 38.1137L48.4984 38.1137C46.8926 35.8745 44.7393 34.086 42.245 32.9198C39.7507 31.7536 36.999 31.2487 34.2539 31.4536C31.5088 31.6585 28.8623 32.5663 26.5681 34.09C24.274 35.6136 22.4093 37.702 21.1527 40.1548C19.8961 42.6077 19.2899 45.3427 19.3921 48.0976C19.4943 50.8525 20.3016 53.5349 21.7365 55.8876C23.1714 58.2402 25.1858 60.1842 27.5866 61.5331C29.9873 62.882 32.6938 63.5906 35.4465 63.5909ZM36.7854 51.5227C35.7201 51.5227 34.6984 51.0989 33.9452 50.3445C33.1919 49.5901 32.7687 48.5669 32.7687 47.5C32.7687 46.4331 33.1919 45.4099 33.9452 44.6555C34.6984 43.9011 35.7201 43.4773 36.7854 43.4773L75.2929 43.4773L68.759 36.9337C68.0495 36.1711 67.6632 35.1625 67.6816 34.1203C67.6999 33.0782 68.1215 32.0838 68.8574 31.3468C69.5934 30.6098 70.5862 30.1876 71.6268 30.1692C72.6675 30.1508 73.6746 30.5376 74.436 31.2482L87.8253 44.6573C88.5775 45.4115 89 46.434 89 47.5C89 48.566 88.5775 49.5885 87.8253 50.3427L74.436 63.7518C74.0683 64.147 73.6248 64.464 73.1321 64.6839C72.6394 64.9037 72.1075 65.022 71.5682 65.0315C71.0288 65.041 70.4931 64.9417 69.9929 64.7393C69.4928 64.537 69.0384 64.2359 68.657 63.8539C68.2756 63.4719 67.9749 63.0169 67.7729 62.516C67.5709 62.0151 67.4716 61.4786 67.4812 60.9384C67.4907 60.3983 67.6087 59.8656 67.8283 59.3722C68.0478 58.8787 68.3643 58.4346 68.759 58.0663L75.2929 51.5227L36.7854 51.5227Z" fill="white" fill-opacity="0.5"/>
</svg>
