<svg width="50" height="53" viewBox="0 0 50 53" fill="none" xmlns="http://www.w3.org/2000/svg">
<path d="M25.4375 53C26.4375 53 27.3958 52.8125 28.3125 52.4375C29.2292 52.0625 30.0417 51.5208 30.75 50.8125L43.5 38L41.625 36.0625C40.9583 35.3958 40.1767 34.9483 39.28 34.72C38.3833 34.4917 37.4983 34.5017 36.625 34.75L32.5 35.9375V15.5C32.5 14.7917 32.26 14.1983 31.78 13.72C31.3 13.2417 30.7067 13.0017 30 13C29.2933 12.9983 28.6992 13.2383 28.2175 13.72C27.7358 14.2017 27.4967 14.795 27.5 15.5V33H25V25.5C25 24.7917 24.76 24.1983 24.28 23.72C23.8 23.2417 23.2067 23.0017 22.5 23C21.7933 22.9983 21.1992 23.2383 20.7175 23.72C20.2358 24.2017 19.9967 24.795 20 25.5V33H17.5V28C17.5 27.2917 17.26 26.6983 16.78 26.22C16.3 25.7417 15.7067 25.5017 15 25.5C14.2933 25.4983 13.6992 25.7383 13.2175 26.22C12.7358 26.7017 12.4967 27.295 12.5 28V33H10C10 32.2917 9.76 31.6983 9.28 31.22C8.8 30.7417 8.20667 30.5017 7.5 30.5C6.79333 30.4983 6.19917 30.7383 5.7175 31.22C5.23583 31.7017 4.99667 32.295 5 33V43C5 45.75 5.97916 48.1042 7.9375 50.0625C9.89583 52.0208 12.25 53 15 53H25.4375ZM50 15.5V3H46.25V8.0625C43.25 5.60417 39.9375 3.72917 36.3125 2.4375C32.6875 1.14583 28.9167 0.5 25 0.5C18.9167 0.5 13.5417 1.89583 8.875 4.6875C4.20833 7.47917 1.25 11.0833 0 15.5H3.9375C5.52084 12 8.19833 9.25 11.97 7.25C15.7417 5.25 20.085 4.25 25 4.25C28.6667 4.25 32.1875 4.89583 35.5625 6.1875C38.9375 7.47917 42 9.33333 44.75 11.75H37.5V15.5H50Z" fill="white"/>
</svg>
