<svg width="97" height="97" viewBox="0 0 97 97" fill="none" xmlns="http://www.w3.org/2000/svg">
<path d="M27.0455 60.5535C27.0466 64.378 28.073 68.1325 30.0182 71.4271C31.9634 74.7217 34.7564 77.4363 38.1072 79.289C41.458 81.1416 45.2444 82.0648 49.0732 81.9626C52.902 81.8604 56.6336 80.7366 59.8805 78.7079C63.1274 76.6792 65.7712 73.8195 67.5374 70.4259C69.3036 67.0322 70.1277 63.2283 69.9242 59.4092C69.7207 55.5901 68.497 51.895 66.3801 48.7076C64.2633 45.5203 61.3305 42.9569 57.8863 41.2837V32.6181C64.5221 34.842 70.1498 39.3494 73.7637 45.3349C77.3777 51.3205 78.7425 58.3942 77.6141 65.292C76.4858 72.1898 72.9379 78.4622 67.6045 82.9885C62.271 87.5148 55.4995 90 48.5 90C41.5005 90 34.729 87.5148 29.3955 82.9885C24.0621 78.4622 20.5142 72.1898 19.3859 65.292C18.2575 58.3942 19.6223 51.3205 23.2363 45.3349C26.8502 39.3494 32.4779 34.842 39.1137 32.6181V41.2837C35.4944 43.0419 32.4435 45.7813 30.3095 49.1888C28.1754 52.5964 27.0444 56.5346 27.0455 60.5535ZM64.5909 60.5535C64.5911 58.0027 63.9832 55.4886 62.8173 53.219C61.6515 50.9494 59.9612 48.9896 57.8863 47.5016V59.2146C57.8863 61.7003 56.8974 64.0842 55.1371 65.8419C53.3769 67.5996 50.9894 68.587 48.5 68.587C46.0106 68.587 43.6231 67.5996 41.8629 65.8419C40.1026 64.0842 39.1137 61.7003 39.1137 59.2146V47.5016C36.8745 49.1074 35.086 51.2607 33.9198 53.755C32.7536 56.2493 32.2487 59.001 32.4536 61.7461C32.6585 64.4912 33.5663 67.1377 35.09 69.4319C36.6136 71.726 38.702 73.5907 41.1548 74.8473C43.6077 76.1039 46.3427 76.7101 49.0976 76.6079C51.8525 76.5057 54.5349 75.6984 56.8876 74.2635C59.2402 72.8286 61.1842 70.8142 62.5331 68.4134C63.882 66.0127 64.5906 63.3062 64.5909 60.5535ZM52.5227 59.2146C52.5227 60.2799 52.0989 61.3016 51.3445 62.0548C50.5901 62.8081 49.5669 63.2313 48.5 63.2313C47.4331 63.2313 46.4099 62.8081 45.6555 62.0548C44.9011 61.3016 44.4773 60.2799 44.4773 59.2146V20.7071L37.9337 27.241C37.1711 27.9505 36.1625 28.3368 35.1203 28.3184C34.0782 28.3001 33.0838 27.8785 32.3468 27.1426C31.6098 26.4066 31.1876 25.4138 31.1692 24.3732C31.1508 23.3325 31.5376 22.3254 32.2482 21.564L45.6573 8.17472C46.4115 7.42251 47.434 7 48.5 7C49.566 7 50.5885 7.42251 51.3427 8.17472L64.7518 21.564C65.147 21.9317 65.464 22.3752 65.6839 22.8679C65.9037 23.3606 66.022 23.8925 66.0315 24.4318C66.041 24.9712 65.9417 25.5069 65.7393 26.0071C65.537 26.5072 65.2359 26.9616 64.8539 27.343C64.4719 27.7244 64.0169 28.0251 63.516 28.2271C63.0151 28.4291 62.4786 28.5284 61.9384 28.5188C61.3983 28.5093 60.8656 28.3913 60.3722 28.1717C59.8787 27.9522 59.4346 27.6357 59.0663 27.241L52.5227 20.7071V59.2146Z" fill="white" fill-opacity="0.5"/>
</svg>
