<svg width="83" height="59" viewBox="0 0 83 59" fill="none" xmlns="http://www.w3.org/2000/svg">
<path d="M53.5535 50.9545C57.378 50.9534 61.1325 49.927 64.4271 47.9818C67.7217 46.0366 70.4363 43.2436 72.289 39.8928C74.1416 36.542 75.0648 32.7556 74.9626 28.9268C74.8604 25.098 73.7366 21.3664 71.7079 18.1195C69.6792 14.8726 66.8195 12.2288 63.4259 10.4626C60.0322 8.69642 56.2283 7.8723 52.4092 8.07581C48.5901 8.27931 44.895 9.50302 41.7076 11.6199C38.5203 13.7367 35.9569 16.6695 34.2837 20.1137L25.6181 20.1137C27.842 13.4779 32.3494 7.85021 38.3349 4.23625C44.3205 0.622295 51.3942 -0.742454 58.292 0.385866C65.1898 1.51419 71.4622 5.06206 75.9885 10.3955C80.5148 15.729 83 22.5005 83 29.5C83 36.4995 80.5148 43.271 75.9885 48.6045C71.4622 53.9379 65.1898 57.4858 58.292 58.6141C51.3942 59.7425 44.3205 58.3777 38.3349 54.7637C32.3494 51.1498 27.842 45.5221 25.6181 38.8863L34.2837 38.8863C36.0419 42.5056 38.7813 45.5565 42.1888 47.6905C45.5964 49.8246 49.5346 50.9556 53.5535 50.9545ZM53.5535 13.4091C51.0027 13.4089 48.4886 14.0168 46.219 15.1827C43.9494 16.3485 41.9896 18.0388 40.5016 20.1137L52.2146 20.1137C54.7003 20.1137 57.0842 21.1026 58.8419 22.8628C60.5996 24.6231 61.587 27.0106 61.587 29.5C61.587 31.9894 60.5996 34.3769 58.8419 36.1371C57.0842 37.8974 54.7003 38.8863 52.2146 38.8863L40.5016 38.8863C42.1074 41.1255 44.2607 42.914 46.755 44.0802C49.2493 45.2464 52.001 45.7513 54.7461 45.5464C57.4912 45.3415 60.1377 44.4337 62.4319 42.91C64.726 41.3864 66.5907 39.298 67.8473 36.8452C69.1039 34.3923 69.7101 31.6573 69.6079 28.9024C69.5057 26.1475 68.6984 23.4651 67.2635 21.1124C65.8286 18.7598 63.8142 16.8158 61.4134 15.4669C59.0127 14.118 56.3062 13.4094 53.5535 13.4091ZM52.2146 25.4773C53.2799 25.4773 54.3015 25.9011 55.0548 26.6555C55.8081 27.4099 56.2313 28.4331 56.2313 29.5C56.2313 30.5669 55.8081 31.5901 55.0548 32.3445C54.3015 33.0989 53.2799 33.5227 52.2146 33.5227L13.7071 33.5227L20.241 40.0663C20.9505 40.8289 21.3368 41.8375 21.3184 42.8797C21.3001 43.9218 20.8785 44.9162 20.1426 45.6532C19.4066 46.3902 18.4138 46.8124 17.3732 46.8308C16.3325 46.8492 15.3254 46.4624 14.564 45.7518L1.17472 32.3427C0.422508 31.5885 -1.24289e-06 30.566 -1.28949e-06 29.5C-1.33608e-06 28.434 0.422508 27.4115 1.17472 26.6573L14.564 13.2482C14.9317 12.853 15.3752 12.536 15.8679 12.3161C16.3606 12.0963 16.8925 11.978 17.4318 11.9685C17.9712 11.959 18.5069 12.0583 19.007 12.2606C19.5072 12.463 19.9616 12.7641 20.343 13.1461C20.7244 13.5281 21.0251 13.9831 21.2271 14.484C21.4291 14.9849 21.5284 15.5214 21.5188 16.0616C21.5093 16.6017 21.3913 17.1344 21.1717 17.6278C20.9522 18.1213 20.6357 18.5654 20.241 18.9337L13.7071 25.4773L52.2146 25.4773Z" fill="white" fill-opacity="0.5"/>
</svg>
